<?xml version="1.0" standalone="no"?><!DOCTYPE svg PUBLIC "-//W3C//DTD SVG 1.1//EN" "http://www.w3.org/Graphics/SVG/1.1/DTD/svg11.dtd"><svg height="1200" node-id="1" sillyvg="true" template-height="1200" template-width="1200" version="1.1" viewBox="0 0 1200 1200" width="1200" xmlns="http://www.w3.org/2000/svg" xmlns:xlink="http://www.w3.org/1999/xlink"><defs node-id="119"></defs><g node-id="352"><path d="M 0.00 0.00 L 1200.00 0.00 L 1200.00 1200.00 L 0.00 1200.00 Z" fill="#f4ffe1" fill-rule="nonzero" group-id="1" node-id="124" stroke="none" target-height="1200" target-width="1200" target-x="0" target-y="0"></path><path d="M 1049.00 151.00 L 1198.08 151.00 C 1198.08 233.64 1131.38 300.63 1049.08 300.68 L 1198.08 300.68 C 1198.08 383.34 1131.34 450.35 1049.00 450.35 L 1198.08 450.35 C 1198.08 532.99 1131.38 599.99 1049.08 600.03 L 1198.68 600.03 L 1198.68 1.28 L 1198.08 1.28 C 1198.11 84.00 1131.37 151.00 1049.00 151.00 Z" fill="#e5f4c6" fill-rule="nonzero" group-id="1" node-id="126" stroke="none" target-height="598.75" target-width="149.68005" target-x="1049" target-y="1.28"></path><path d="M 1049.03 599.99 L 1049.11 599.99 L 1048.95 599.99 L 1049.03 599.99 Z" fill="#e5f4c6" fill-rule="nonzero" group-id="1" node-id="128" stroke="none" target-height="0" target-width="0.16003418" target-x="1048.95" target-y="599.99"></path><path d="M 600.59 1.32 L 599.41 1.32 C 599.41 84.00 532.66 151.00 450.28 151.00 L 599.41 151.00 C 599.41 233.63 532.66 300.63 450.41 300.71 L 599.41 300.71 C 599.41 383.35 532.66 450.34 450.28 450.34 L 599.41 450.34 C 599.41 532.98 532.66 599.97 450.41 600.06 L 599.41 600.06 C 599.41 682.69 532.66 749.78 450.28 749.78 L 599.41 749.78 C 599.41 832.40 532.66 899.41 450.41 899.41 L 599.41 899.41 C 599.41 982.04 532.66 1049.12 450.28 1049.12 L 599.41 1049.12 C 599.41 1131.75 532.66 1198.75 450.41 1198.75 L 749.63 1198.75 C 667.34 1198.75 600.63 1131.75 600.63 1049.12 L 749.72 1049.12 C 667.34 1049.12 600.59 982.04 600.59 899.41 L 749.59 899.41 C 667.30 899.41 600.59 832.41 600.59 749.78 L 749.72 749.78 C 667.34 749.78 600.59 682.69 600.59 600.06 L 749.59 600.06 C 667.30 599.97 600.59 532.98 600.59 450.34 L 749.72 450.34 C 667.34 450.34 600.59 383.34 600.59 300.71 L 749.59 300.71 C 667.30 300.63 600.59 233.63 600.59 151.00 L 749.72 151.00 C 667.34 151.00 600.59 84.00 600.59 1.32 Z" fill="#e5f4c6" fill-rule="nonzero" group-id="1" node-id="130" stroke="none" target-height="1197.43" target-width="299.43997" target-x="450.28" target-y="1.32"></path><path d="M 749.60 599.99 L 749.68 599.99 L 749.76 599.99 L 749.60 599.99 Z" fill="#e5f4c6" fill-rule="nonzero" group-id="1" node-id="132" stroke="none" target-height="0" target-width="0.16003418" target-x="749.6" target-y="599.99"></path><path d="M 1049.03 899.37 L 1049.11 899.36 L 1048.95 899.36 L 1049.03 899.37 Z" fill="#e5f4c6" fill-rule="nonzero" group-id="1" node-id="134" stroke="none" target-height="0.010009766" target-width="0.16003418" target-x="1048.95" target-y="899.36"></path><path d="M 1049.00 749.69 L 1198.08 749.69 C 1198.08 832.32 1131.38 899.32 1049.08 899.36 L 1198.08 899.36 C 1198.11 982.00 1131.37 1049.00 1049.00 1049.00 L 1198.08 1049.00 C 1198.08 1131.64 1131.38 1198.64 1049.08 1198.68 L 1198.68 1198.68 L 1198.68 600.00 L 1198.08 600.00 C 1198.11 682.67 1131.37 749.69 1049.00 749.69 Z" fill="#e5f4c6" fill-rule="nonzero" group-id="1" node-id="136" stroke="none" target-height="598.68005" target-width="149.68005" target-x="1049" target-y="600"></path><path d="M 900.00 1049.00 L 1049.00 1049.00 C 966.69 1049.00 900.00 982.00 900.00 899.37 L 1049.00 899.37 C 966.72 899.37 900.00 832.37 900.00 749.70 L 1049.00 749.70 C 966.70 749.70 900.00 682.67 900.00 600.00 L 1049.00 600.00 C 966.72 600.00 900.00 533.00 900.00 450.29 L 1049.00 450.29 C 966.67 450.29 899.93 383.29 899.93 300.63 L 1048.93 300.63 C 966.65 300.63 899.93 233.63 899.93 150.96 L 1049.00 150.96 C 966.69 151.00 900.00 83.94 900.00 1.27 L 898.81 1.27 C 898.76 83.94 832.00 151.00 749.69 151.00 L 898.76 151.00 C 898.76 233.63 832.06 300.63 749.76 300.67 L 898.76 300.67 C 898.76 383.34 832.02 450.33 749.69 450.33 L 898.76 450.33 C 898.76 533.00 832.06 600.00 749.76 600.04 L 898.76 600.04 C 898.76 682.70 832.02 749.73 749.69 749.73 L 898.76 749.73 C 898.76 832.36 832.06 899.35 749.76 899.40 L 898.76 899.40 C 898.76 982.00 832.00 1049.00 749.69 1049.00 L 898.76 1049.00 C 898.76 1131.67 832.06 1198.66 749.76 1198.70 L 1048.92 1198.70 C 966.65 1198.69 900.00 1131.70 900.00 1049.00 Z" fill="#e5f4c6" fill-rule="nonzero" group-id="1" node-id="138" stroke="none" target-height="1197.4299" target-width="299.31" target-x="749.69" target-y="1.27"></path><path d="M 450.32 599.99 L 450.40 599.99 L 450.24 599.99 L 450.32 599.99 Z" fill="#e5f4c6" fill-rule="nonzero" group-id="1" node-id="140" stroke="none" target-height="0" target-width="0.16000366" target-x="450.24" target-y="599.99"></path><path d="M 150.89 599.99 L 150.96 599.99 L 151.04 599.99 L 150.89 599.99 Z" fill="#e5f4c6" fill-rule="nonzero" group-id="1" node-id="142" stroke="none" target-height="0" target-width="0.1499939" target-x="150.89" target-y="599.99"></path><path d="M 1.89 450.31 L 151.00 450.31 C 68.67 450.31 1.93 383.31 1.93 300.64 L 150.93 300.64 C 68.63 300.59 1.93 233.64 1.93 150.96 L 151.00 150.96 C 68.63 151.00 1.89 84.00 1.89 1.28 L 1.29 1.28 L 1.29 600.00 L 150.89 600.00 C 68.59 600.00 1.89 533.00 1.89 450.31 Z" fill="#e5f4c6" fill-rule="nonzero" group-id="1" node-id="144" stroke="none" target-height="598.72" target-width="149.71" target-x="1.29" target-y="1.28"></path><path d="M 301.24 1049.00 L 450.31 1049.00 C 367.98 1049.00 301.24 982.00 301.24 899.34 L 450.24 899.34 C 367.96 899.34 301.24 832.34 301.24 749.67 L 450.31 749.67 C 367.98 749.67 301.25 682.67 301.24 599.98 L 450.24 599.98 C 367.96 599.98 301.24 532.98 301.24 450.27 L 450.31 450.27 C 367.98 450.27 301.24 383.27 301.24 300.61 L 450.24 300.61 C 367.96 300.61 301.24 233.61 301.24 150.94 L 450.31 150.94 C 367.98 150.94 301.24 83.94 301.24 1.24 L 300.06 1.24 C 300.06 83.94 233.31 151.00 151.00 151.00 L 300.06 151.00 C 300.06 233.63 233.36 300.63 151.06 300.67 L 300.06 300.67 C 300.06 383.34 233.31 450.33 150.98 450.33 L 300.06 450.33 C 300.06 533.00 233.36 600.00 151.06 600.04 L 300.06 600.04 C 300.00 682.67 233.30 749.70 151.00 749.70 L 300.06 749.70 C 300.06 832.33 233.36 899.32 151.06 899.37 L 300.06 899.37 C 300.06 982.00 233.31 1049.00 151.00 1049.00 L 300.06 1049.00 C 300.06 1131.67 233.36 1198.66 151.06 1198.70 L 450.22 1198.70 C 367.94 1198.69 301.24 1131.70 301.24 1049.00 Z" fill="#e5f4c6" fill-rule="nonzero" group-id="1" node-id="146" stroke="none" target-height="1197.46" target-width="299.33002" target-x="150.98" target-y="1.24"></path><path d="M 151.04 899.36 L 150.89 899.36 L 150.96 899.37 L 151.04 899.36 Z" fill="#e5f4c6" fill-rule="nonzero" group-id="1" node-id="148" stroke="none" target-height="0.010009766" target-width="0.1499939" target-x="150.89" target-y="899.36"></path><path d="M 1.89 1049.00 L 151.00 1049.00 C 68.63 1049.00 1.89 982.00 1.89 899.36 L 150.89 899.36 C 68.59 899.36 1.89 832.36 1.89 749.69 L 151.00 749.69 C 68.67 749.69 1.93 682.69 1.93 600.01 L 1.33 600.01 L 1.33 1198.72 L 150.93 1198.72 C 68.59 1198.68 1.89 1131.68 1.89 1049.00 Z" fill="#e5f4c6" fill-rule="nonzero" group-id="1" node-id="150" stroke="none" target-height="598.70996" target-width="149.67" target-x="1.33" target-y="600.01"></path></g><g node-id="353"><path d="M 325.06 1190.26 C 485.65 902.85 783.19 900.92 954.36 1189.26" fill="#ffffff" fill-rule="nonzero" group-id="2" node-id="154" stroke="none" target-height="289.34003" target-width="629.3" target-x="325.06" target-y="900.92"></path><path d="M 799.62 1187.16 C 801.02 1141.10 805.65 1095.19 813.47 1049.78 C 815.03 1040.72 816.76 1031.54 820.07 1022.89 L 782.14 1000.71 C 717.37 1093.24 552.14 1120.24 482.79 1005.71 L 451.42 1026.71 C 453.74 1034.27 455.50 1041.98 456.68 1049.80 C 464.50 1095.21 469.13 1141.12 470.53 1187.18 Z" fill="#a393ba" fill-rule="nonzero" group-id="2" node-id="156" stroke="none" target-height="186.47003" target-width="368.65" target-x="451.42" target-y="1000.71"></path><path d="M 985.58 595.00 C 995.73 592.64 1006.04 590.21 1015.07 585.00 C 1024.10 579.79 1031.83 571.36 1033.60 561.09 C 1035.86 547.91 1027.72 534.68 1016.76 527.00 C 1005.80 519.32 992.45 516.00 979.44 512.92 L 987.10 511.78 C 1008.40 508.38 1021.58 483.25 1016.59 462.26 C 1011.60 441.27 992.59 425.74 971.96 419.55 C 963.36 417.08 954.50 415.66 945.56 415.32 L 954.78 403.23 C 995.83 366.63 918.17 246.52 860.88 317.15 L 855.03 325.45 C 854.59 294.88 833.83 265.60 805.12 255.08 C 776.41 244.56 741.65 253.48 721.56 276.53 L 715.14 303.80 C 749.00 201.36 640.00 182.53 593.40 237.53 L 600.68 222.31 C 592.23 202.91 564.75 181.24 528.82 184.39 L 528.82 205.00 C 521.36 177.75 493.25 158.15 465.02 159.16 C 436.79 160.17 410.69 180.76 401.75 207.57 C 392.81 234.38 400.75 265.67 420.30 286.06 L 405.71 268.55 C 380.57 278.39 354.12 289.19 337.84 310.74 C 321.56 332.29 321.00 368.00 343.78 382.50 L 326.53 368.77 C 292.53 367.32 258.42 385.77 241.01 414.97 C 223.60 444.17 220.60 480.10 253.49 516.10 C 253.49 516.10 232.17 540.10 243.49 564.83 C 255.10 590.21 280.34 598.27 281.79 565.00 C 292.06 596.70 292.64 651.00 316.40 661.77 Z" fill="#824319" fill-rule="nonzero" group-id="2" node-id="158" stroke="none" target-height="503.62003" target-width="815.26" target-x="220.6" target-y="158.15"></path><path d="M 950.23 668.48 C 950.23 668.48 949.92 668.91 949.41 669.70 C 950.02 653.28 951.33 637.96 954.41 624.32 C 954.41 624.32 824.41 559.59 632.17 559.59 C 423.94 559.59 309.93 611.30 309.93 611.30 C 314.35 628.17 316.33 646.54 317.15 665.76 C 292.04 626.46 194.15 644.97 209.85 735.06 C 224.38 818.21 284.52 817.23 318.73 795.48 C 326.27 889.06 367.40 972.20 570.28 981.48 C 562.43 985.35 550.91 987.48 542.91 989.99 C 554.76 1008.53 593.01 1023.29 633.78 1022.88 C 675.71 1022.46 710.93 1007.73 721.29 988.05 C 712.23 985.39 703.33 982.20 694.64 978.49 C 888.51 959.55 934.05 873.49 945.11 784.49 C 946.63 788.23 948.36 791.88 950.29 795.43 C 984.50 817.21 1044.68 818.22 1059.22 735.04 C 1075.26 642.93 972.44 625.62 950.23 668.48 Z" fill="#d8a482" fill-rule="nonzero" group-id="2" node-id="160" stroke="none" target-height="463.69995" target-width="881.11" target-x="194.15" target-y="559.59"></path><path d="M 288.77 638.27 C 447.69 583.41 835.00 592.14 950.50 644.77 L 964.08 652.15 C 969.85 620.87 985.43 589.59 985.43 589.59 L 964.08 581.00 C 850.00 494.00 449.74 464.14 278.91 554.72" fill="#a468dd" fill-rule="nonzero" group-id="2" node-id="162" stroke="none" target-height="188.01001" target-width="706.52" target-x="278.91" target-y="464.14"></path><path d="M 972.46 602.61 C 971.72 600.13 969.85 598.14 967.41 597.25 C 957.41 593.42 947.31 590.05 937.11 587.05 C 922.81 580.35 905.50 577.75 890.67 574.22 C 889.57 573.95 888.46 573.72 887.35 573.46 C 887.14 573.29 886.93 573.13 886.70 572.98 C 854.37 554.75 817.80 553.09 781.53 552.89 C 781.15 552.80 780.75 552.73 780.36 552.69 C 697.20 548.74 613.98 546.85 530.69 547.00 C 450.06 547.21 369.01 546.73 289.63 562.54 C 288.65 562.74 287.72 563.12 286.89 563.67 C 286.29 575.38 287.98 586.83 289.43 598.36 C 290.40 598.38 291.38 598.24 292.30 597.93 C 325.55 587.16 359.67 581.12 394.16 577.69 C 472.77 573.83 551.45 572.56 630.22 573.87 C 672.22 574.61 714.30 575.87 756.29 578.23 C 827.29 584.12 897.73 595.59 966.03 617.29 C 975.23 620.21 979.56 607.19 972.46 602.61 Z" fill="#ba88ea" fill-rule="nonzero" group-id="2" node-id="164" stroke="none" target-height="73.48004" target-width="693.27" target-x="286.29" target-y="546.73"></path><path d="M 857.10 446.35 C 876.53 583.42 735.80 628.47 738.10 476.43 L 723.48 528.75 C 688.26 575.64 626.48 546.04 613.76 499.56 C 603.59 534.49 586.49 559.64 537.76 561.83 C 491.25 563.92 483.18 523.83 483.70 493.91 L 455.63 536.83 C 382.84 585.00 356.00 533.16 375.84 469.00" fill="#824319" fill-rule="nonzero" group-id="2" node-id="166" stroke="none" target-height="182.11996" target-width="520.53" target-x="356" target-y="446.35"></path><path d="M 560.14 846.47 C 560.14 905.66 510.15 953.64 448.49 953.64 C 386.83 953.64 336.84 905.66 336.84 846.47 C 336.84 787.28 386.83 739.30 448.49 739.30 C 510.15 739.30 560.14 787.28 560.14 846.47 Z" fill="#ce8172" fill-rule="nonzero" group-id="2" node-id="168" stroke="none" target-height="214.34003" target-width="223.30002" target-x="336.84" target-y="739.3"></path><path d="M 910.17 846.47 C 910.17 905.66 860.18 953.64 798.52 953.64 C 736.86 953.64 686.87 905.66 686.87 846.47 C 686.87 787.28 736.86 739.30 798.52 739.30 C 860.18 739.30 910.17 787.28 910.17 846.47 Z" fill="#ce8172" fill-rule="nonzero" group-id="2" node-id="170" stroke="none" target-height="214.34003" target-width="223.29999" target-x="686.87" target-y="739.3"></path><path d="M 449.19 771.19 C 443.98 773.19 438.71 774.93 433.34 776.53 C 425.34 778.94 417.19 780.99 408.99 782.78 C 399.99 784.78 390.99 786.45 382.07 787.98 C 376.64 788.90 372.18 785.77 371.79 780.11 C 371.20 771.38 369.70 764.11 375.50 758.59 C 378.09 756.56 380.78 754.67 383.57 752.93 C 386.57 751.01 391.38 748.11 397.24 744.93 C 404.88 740.71 412.76 736.95 420.84 733.67 C 442.94 724.81 466.64 721.00 470.84 742.23 C 473.80 756.77 461.17 766.66 449.19 771.19 Z" fill="#f2c6af" fill-rule="nonzero" group-id="2" node-id="172" stroke="none" target-height="67.900024" target-width="104.099976" target-x="369.7" target-y="721"></path><path d="M 433.34 776.53 C 425.34 778.94 417.19 780.99 408.99 782.78 C 405.99 779.72 403.61 776.10 401.99 772.13 C 398.31 763.47 397.37 754.20 397.27 744.89 C 404.91 740.67 412.79 736.91 420.87 733.63 C 430.00 742.00 437.63 763.31 433.34 776.53 Z" fill="#e5ad95" fill-rule="nonzero" group-id="2" node-id="174" stroke="none" target-height="49.150024" target-width="40.360016" target-x="397.27" target-y="733.63"></path></g><g node-id="354"><path d="M 543.00 686.35 C 515.27 686.29 514.63 747.01 546.15 747.01 C 570.00 747.00 572.19 686.42 543.00 686.35 Z" fill="#331403" fill-rule="nonzero" group-id="3" node-id="178" stroke="none" target-height="60.72003" target-width="57.559998" target-x="514.63" target-y="686.29"></path><path d="M 543.00 681.85 C 514.43 682.40 512.21 725.44 526.61 742.46 C 534.43 751.70 549.34 755.16 558.77 746.34 C 567.95 737.77 570.03 722.75 568.63 710.88 C 566.95 696.63 558.92 682.21 543.00 681.88 C 537.20 681.75 537.20 690.75 543.00 690.88 C 563.21 691.34 563.10 724.50 555.11 736.77 C 550.38 744.04 541.43 744.05 535.11 738.42 C 528.00 732.00 526.19 720.90 527.00 711.81 C 527.81 702.72 532.33 691.06 543.00 690.81 C 548.74 690.74 548.76 681.74 543.00 681.85 Z" fill="#331403" fill-rule="nonzero" group-id="3" node-id="180" stroke="none" target-height="73.41998" target-width="57.820007" target-x="512.21" target-y="681.74"></path><path d="M 718.88 686.35 C 746.60 686.29 747.25 747.01 715.73 747.01 C 691.80 747.00 689.64 686.42 718.88 686.35 Z" fill="#331403" fill-rule="nonzero" group-id="3" node-id="182" stroke="none" target-height="60.72003" target-width="57.609985" target-x="689.64" target-y="686.29"></path><path d="M 718.88 690.85 C 728.12 691.03 732.63 699.85 734.29 707.85 C 736.18 716.97 734.95 728.14 729.18 735.73 C 724.55 741.84 714.71 745.52 708.72 739.24 C 702.36 732.57 701.27 721.38 702.06 712.65 C 702.93 702.97 707.60 691.10 718.88 690.84 C 724.66 690.71 724.69 681.71 718.88 681.84 C 690.50 682.49 686.73 724.97 700.26 743.08 C 708.11 753.59 722.49 753.75 732.26 745.51 C 742.16 737.13 745.17 722.43 743.74 710.07 C 742.15 696.40 734.26 682.13 718.93 681.84 C 713.09 681.74 713.09 690.74 718.88 690.85 Z" fill="#331403" fill-rule="nonzero" group-id="3" node-id="184" stroke="none" target-height="72.03998" target-width="58.440002" target-x="686.73" target-y="681.71"></path><g node-id="358"><path d="M 510.45 663.55 C 521.17 659.25 532.09 654.40 543.57 652.55 C 555.05 650.70 565.08 653.68 574.44 660.15 C 579.22 663.45 583.72 655.65 578.98 652.38 C 568.92 645.38 557.45 641.95 545.21 643.31 C 532.21 644.76 520.07 650.05 508.05 654.87 C 502.74 656.99 505.05 665.70 510.45 663.55 Z" fill="#eab394" fill-rule="nonzero" group-id="3,7" node-id="188" stroke="none" target-height="23.75" target-width="80.97998" target-x="502.74" target-y="641.95"></path></g><path d="M 753.78 654.87 C 741.78 650.05 729.61 644.76 716.63 643.31 C 704.39 641.95 692.92 645.43 682.86 652.38 C 678.12 655.65 682.62 663.45 687.40 660.15 C 696.75 653.69 706.93 650.73 718.27 652.55 C 729.61 654.37 740.67 659.25 751.39 663.55 C 756.77 665.70 759.10 657.00 753.78 654.87 Z" fill="#eab394" fill-rule="nonzero" group-id="3,8" node-id="193" stroke="none" target-height="23.75" target-width="80.97998" target-x="678.12" target-y="641.95"></path></g><g node-id="355"><path d="M 260.00 725.93 C 269.27 718.36 282.00 720.21 289.60 729.00 C 293.41 733.38 299.75 727.00 295.97 722.64 C 284.86 709.86 266.51 709.05 253.64 719.57 C 249.15 723.24 255.55 729.57 260.00 725.93 Z" fill="#f9bca5" fill-rule="nonzero" group-id="4" node-id="198" stroke="none" target-height="24.330017" target-width="50.600006" target-x="249.15" target-y="709.05"></path><path d="M 272.00 717.41 C 267.09 721.34 264.09 727.18 263.75 733.46 C 263.31 739.24 272.31 739.21 272.75 733.46 C 273.14 729.57 275.18 726.04 278.36 723.77 C 280.28 722.28 279.93 718.97 278.36 717.41 C 276.46 715.51 273.92 715.91 272.00 717.41 Z" fill="#f9bca5" fill-rule="nonzero" group-id="4" node-id="200" stroke="none" target-height="23.72998" target-width="16.970001" target-x="263.31" target-y="715.51"></path><path d="M 1025.75 719.57 C 1012.89 709.05 994.53 709.86 983.43 722.64 C 979.64 726.99 985.98 733.38 989.79 729.00 C 997.43 720.21 1010.12 718.36 1019.39 725.93 C 1023.84 729.57 1030.24 723.24 1025.75 719.57 Z" fill="#f9bca5" fill-rule="nonzero" group-id="4" node-id="202" stroke="none" target-height="24.330017" target-width="50.599976" target-x="979.64" target-y="709.05"></path><path d="M 1001.05 723.77 C 1004.23 726.04 1006.27 729.57 1006.66 733.46 C 1007.10 739.20 1016.10 739.25 1015.66 733.46 C 1015.32 727.18 1012.32 721.35 1007.42 717.41 C 1005.50 715.92 1002.92 715.54 1001.05 717.41 C 999.50 718.96 999.12 722.27 1001.05 723.77 Z" fill="#f9bca5" fill-rule="nonzero" group-id="4" node-id="204" stroke="none" target-height="23.710022" target-width="16.97998" target-x="999.12" target-y="715.54"></path><g node-id="360"><g node-id="362"><path d="M 430.29 846.21 L 424.29 866.21 C 422.62 871.77 431.29 874.14 432.97 868.60 L 438.97 848.60 C 440.64 843.04 431.97 840.66 430.29 846.21 Z" fill="#ffb9a4" fill-opacity="0.67" fill-rule="nonzero" group-id="4,9,11" node-id="210" stroke="none" target-height="33.48004" target-width="18.02002" target-x="422.62" target-y="840.66"></path></g><g node-id="363"><path d="M 468.48 846.21 L 462.48 866.21 C 460.81 871.77 469.48 874.14 471.16 868.60 L 477.16 848.60 C 478.83 843.04 470.16 840.66 468.48 846.21 Z" fill="#ffb9a4" fill-opacity="0.67" fill-rule="nonzero" group-id="4,9,12" node-id="215" stroke="none" target-height="33.48004" target-width="18.019989" target-x="460.81" target-y="840.66"></path></g><g node-id="364"><path d="M 502.47 846.21 L 496.47 866.21 C 494.80 871.77 503.47 874.14 505.15 868.60 L 511.15 848.60 C 512.82 843.04 504.15 840.66 502.47 846.21 Z" fill="#ffb9a4" fill-opacity="0.67" fill-rule="nonzero" group-id="4,9,13" node-id="220" stroke="none" target-height="33.48004" target-width="18.02002" target-x="494.8" target-y="840.66"></path></g><g node-id="365"><path d="M 775.13 846.21 L 769.13 866.21 C 767.46 871.77 776.13 874.14 777.81 868.60 L 783.81 848.60 C 785.48 843.04 776.81 840.66 775.13 846.21 Z" fill="#ffb9a4" fill-opacity="0.67" fill-rule="nonzero" group-id="4,9,14" node-id="225" stroke="none" target-height="33.48004" target-width="18.019958" target-x="767.46" target-y="840.66"></path></g><g node-id="366"><path d="M 813.33 846.21 L 807.33 866.21 C 805.66 871.77 814.33 874.14 816.01 868.60 L 822.01 848.60 C 823.69 843.04 815.01 840.66 813.34 846.21 Z" fill="#ffb9a4" fill-opacity="0.67" fill-rule="nonzero" group-id="4,9,15" node-id="230" stroke="none" target-height="33.48004" target-width="18.03003" target-x="805.66" target-y="840.66"></path></g><path d="M 847.32 846.21 L 841.32 866.21 C 839.65 871.77 848.32 874.14 850.00 868.60 L 856.00 848.60 C 857.68 843.04 849.00 840.66 847.33 846.21 Z" fill="#ffb9a4" fill-opacity="0.67" fill-rule="nonzero" group-id="4,9,16" node-id="235" stroke="none" target-height="33.48004" target-width="18.029968" target-x="839.65" target-y="840.66"></path></g><g node-id="361"><path d="M 542.38 315.47 C 520.61 298.08 491.46 316.56 480.92 337.86 C 468.16 363.65 475.12 396.94 503.19 408.77 C 508.51 411.01 510.84 402.30 505.58 400.09 C 483.07 390.60 478.84 362.47 488.69 342.40 C 496.17 327.17 519.00 308.24 536.01 321.84 C 540.50 325.42 546.90 319.09 542.38 315.47 Z" fill="#c18257" fill-opacity="0.53" fill-rule="nonzero" group-id="4,10" node-id="241" stroke="none" target-height="112.93002" target-width="78.74002" target-x="468.16" target-y="298.08"></path><path d="M 659.77 368.74 C 679.87 369.70 699.75 373.30 718.91 379.45 C 726.26 381.82 734.63 384.72 739.54 391.08 C 743.34 396.00 744.66 404.98 738.84 408.99 C 734.10 412.25 738.59 420.06 743.38 416.76 C 750.66 411.76 753.08 403.04 751.03 394.59 C 748.77 385.26 740.83 378.83 732.45 375.00 C 710.20 364.82 684.02 360.93 659.77 359.74 C 653.99 359.45 654.00 368.45 659.77 368.74 Z" fill="#c18257" fill-opacity="0.53" fill-rule="nonzero" group-id="4,10" node-id="243" stroke="none" target-height="60.609985" target-width="99.09003" target-x="653.99" target-y="359.45"></path><path d="M 565.35 454.84 C 593.70 446.84 634.26 436.49 655.54 464.63 C 658.99 469.19 666.81 464.71 663.31 460.09 C 653.31 446.87 638.31 439.73 622.03 437.68 C 602.03 435.16 582.03 440.74 562.95 446.17 C 557.39 447.75 559.76 456.43 565.35 454.84 Z" fill="#c18257" fill-opacity="0.53" fill-rule="nonzero" group-id="4,10" node-id="245" stroke="none" target-height="34.03" target-width="109.41998" target-x="557.39" target-y="435.16"></path><path d="M 840.82 367.81 C 854.88 360.48 873.23 361.98 885.47 372.34 C 897.71 382.70 902.35 400.01 897.80 415.24 C 896.13 420.80 904.80 423.17 906.48 417.63 C 912.05 399.00 906.00 377.38 890.70 365.00 C 875.40 352.62 853.61 351.00 836.28 360.00 C 831.14 362.68 835.69 370.45 840.82 367.77 Z" fill="#c18257" fill-opacity="0.53" fill-rule="nonzero" group-id="4,10" node-id="247" stroke="none" target-height="72.17001" target-width="80.90997" target-x="831.14" target-y="351"></path><path d="M 612.32 280.13 C 637.00 269.00 667.52 272.63 688.88 289.31 C 693.39 292.84 699.80 286.51 695.24 282.95 C 670.29 263.50 636.64 259.42 607.77 272.36 C 602.50 274.73 607.07 282.49 612.32 280.13 Z" fill="#c18257" fill-opacity="0.53" fill-rule="nonzero" group-id="4,10" node-id="249" stroke="none" target-height="33.419983" target-width="97.29999" target-x="602.5" target-y="259.42"></path><path d="M 370.80 402.69 C 349.00 417.56 346.05 452.21 366.00 470.00 C 370.31 473.85 376.70 467.51 372.37 463.64 C 357.04 449.94 358.14 422.23 375.37 410.46 C 380.13 407.22 375.63 399.46 370.83 402.69 Z" fill="#c18257" fill-opacity="0.53" fill-rule="nonzero" group-id="4,10" node-id="251" stroke="none" target-height="74.390015" target-width="34.080017" target-x="346.05" target-y="399.46"></path><path d="M 290.42 461.53 C 276.85 494.35 298.17 532.06 333.28 537.32 C 338.94 538.17 341.39 529.50 335.67 528.64 C 321.25 526.61 308.59 517.98 301.43 505.30 C 294.26 492.62 293.40 477.32 299.10 463.92 C 301.31 458.57 292.60 456.24 290.42 461.53 Z" fill="#c18257" fill-opacity="0.53" fill-rule="nonzero" group-id="4,10" node-id="253" stroke="none" target-height="81.92999" target-width="64.54001" target-x="276.85" target-y="456.24"></path><path d="M 433.80 442.59 C 439.31 466.76 464.45 482.66 488.60 478.33 C 494.29 477.33 491.88 468.63 486.21 469.65 C 466.71 473.15 446.83 459.27 442.47 440.20 C 441.19 434.56 432.47 436.95 433.80 442.59 Z" fill="#c18257" fill-opacity="0.53" fill-rule="nonzero" group-id="4,10" node-id="255" stroke="none" target-height="48.100006" target-width="61.820007" target-x="432.47" target-y="434.56"></path><path d="M 458.44 270.28 C 462.03 258.28 473.44 251.13 485.24 248.75 C 501.09 245.54 517.56 251.16 532.50 255.91 C 538.04 257.67 540.41 248.98 534.90 247.23 C 517.44 241.68 498.44 235.85 480.11 240.71 C 466.27 244.38 453.97 253.85 449.76 267.89 C 448.09 273.45 456.76 275.82 458.44 270.28 Z" fill="#c18257" fill-opacity="0.53" fill-rule="nonzero" group-id="4,10" node-id="257" stroke="none" target-height="39.97" target-width="92.31998" target-x="448.09" target-y="235.85"></path><path d="M 618.66 332.00 C 595.66 334.39 578.75 360.16 587.66 382.10 C 589.81 387.40 598.52 385.10 596.34 379.71 C 589.84 363.71 600.90 342.85 618.65 341.00 C 624.35 340.41 624.41 331.41 618.65 332.00 Z" fill="#c18257" fill-opacity="0.53" fill-rule="nonzero" group-id="4,10" node-id="259" stroke="none" target-height="55.98999" target-width="45.659973" target-x="578.75" target-y="331.41"></path><path d="M 799.22 458.76 C 790.56 470.64 794.34 487.64 804.34 497.52 C 816.20 509.23 834.22 510.32 849.77 507.88 C 855.48 506.98 853.06 498.31 847.38 499.20 C 835.46 501.07 821.21 500.47 811.69 492.08 C 803.60 484.96 800.37 472.38 806.99 463.30 C 810.41 458.62 802.60 454.12 799.22 458.76 Z" fill="#c18257" fill-opacity="0.53" fill-rule="nonzero" group-id="4,10" node-id="261" stroke="none" target-height="56.200012" target-width="64.91998" target-x="790.56" target-y="454.12"></path><path d="M 927.94 494.00 C 951.49 492.10 974.59 507.17 981.73 529.83 C 983.47 535.34 992.16 532.99 990.41 527.44 C 982.14 501.19 955.52 482.78 927.94 485.00 C 922.21 485.46 922.16 494.46 927.94 494.00 Z" fill="#c18257" fill-opacity="0.53" fill-rule="nonzero" group-id="4,10" node-id="263" stroke="none" target-height="52.560028" target-width="70" target-x="922.16" target-y="482.78"></path><path d="M 768.90 347.06 C 781.16 345.69 792.35 352.66 798.90 362.77 C 806.17 373.96 808.25 387.56 809.53 400.59 C 810.09 406.30 819.10 406.36 818.53 400.59 C 817.00 385.04 814.53 368.59 804.91 355.71 C 796.57 344.48 783.22 336.46 768.91 338.06 C 763.22 338.69 763.15 347.70 768.91 347.06 Z" fill="#c18257" fill-opacity="0.53" fill-rule="nonzero" group-id="4,10" node-id="265" stroke="none" target-height="69.899994" target-width="55.94995" target-x="763.15" target-y="336.46"></path><path d="M 699.00 467.22 C 701.85 486.44 691.32 505.93 674.31 514.90 C 669.19 517.60 673.73 525.37 678.85 522.67 C 699.73 511.67 711.11 487.98 707.68 464.83 C 706.83 459.12 698.16 461.54 699.00 467.22 Z" fill="#c18257" fill-opacity="0.53" fill-rule="nonzero" group-id="4,10" node-id="267" stroke="none" target-height="66.25" target-width="41.919983" target-x="669.19" target-y="459.12"></path><path d="M 428.85 332.85 C 411.02 327.85 392.01 338.07 385.67 355.29 C 383.67 360.73 392.36 363.08 394.35 357.68 C 399.00 345.00 413.62 338.00 426.45 341.53 C 432.04 343.08 434.45 334.40 428.85 332.85 Z" fill="#c18257" fill-opacity="0.53" fill-rule="nonzero" group-id="4,10" node-id="269" stroke="none" target-height="35.22998" target-width="50.78" target-x="383.67" target-y="327.85"></path></g></g><g node-id="356"><path d="M 815.00 1034.39 C 871.00 1074.32 915.48 1128.47 950.50 1187.28 C 953.50 1192.28 961.24 1187.73 958.27 1182.74 C 929.63 1134.64 894.88 1089.74 852.63 1052.74 C 842.05 1043.48 831.02 1034.77 819.54 1026.60 C 814.82 1023.24 810.32 1031.04 815.00 1034.37 Z" fill="#331403" fill-rule="nonzero" group-id="5" node-id="274" stroke="none" target-height="169.04004" target-width="150.91998" target-x="810.32" target-y="1023.24"></path><path d="M 778.91 1002.75 C 793.26 1010.33 807.10 1018.84 820.34 1028.22 C 825.08 1031.56 829.58 1023.76 824.88 1020.45 C 811.64 1011.08 797.80 1002.58 783.46 995.00 C 778.34 992.30 773.78 1000.06 778.91 1002.77 Z" fill="#331403" fill-rule="nonzero" group-id="5" node-id="276" stroke="none" target-height="39.26007" target-width="55.799988" target-x="773.78" target-y="992.3"></path><path d="M 694.24 980.11 C 721.85 986.12 748.52 995.81 773.55 1008.92 C 778.69 1011.59 783.24 1003.83 778.10 1001.15 C 752.39 987.65 724.99 977.65 696.63 971.43 C 690.98 970.22 688.57 978.89 694.24 980.11 Z" fill="#331403" fill-rule="nonzero" group-id="5" node-id="278" stroke="none" target-height="41.370056" target-width="94.66998" target-x="688.57" target-y="970.22"></path><path d="M 489.46 1015.22 C 513.53 1001.16 539.37 990.38 566.30 983.17 C 571.89 981.69 569.52 973.00 563.90 974.49 C 536.21 981.92 509.65 993.02 484.90 1007.49 C 479.90 1010.39 484.42 1018.17 489.44 1015.26 Z" fill="#331403" fill-rule="nonzero" group-id="5" node-id="280" stroke="none" target-height="45.169983" target-width="91.99002" target-x="479.9" target-y="973"></path><path d="M 453.69 1031.15 C 464.45 1023.14 475.64 1015.72 487.20 1008.92 C 492.20 1005.99 487.67 998.21 482.66 1001.15 C 471.10 1007.95 459.91 1015.37 449.15 1023.38 C 444.55 1026.80 449.04 1034.61 453.69 1031.15 Z" fill="#331403" fill-rule="nonzero" group-id="5" node-id="282" stroke="none" target-height="36.399963" target-width="47.650024" target-x="444.55" target-y="998.21"></path><path d="M 329.00 1188.25 C 361.30 1130.63 402.88 1077.25 456.00 1037.45 C 460.58 1034.02 456.10 1026.20 451.46 1029.68 C 397.05 1070.49 354.34 1124.68 321.22 1183.68 C 318.39 1188.74 326.16 1193.28 329.00 1188.22 Z" fill="#331403" fill-rule="nonzero" group-id="5" node-id="284" stroke="none" target-height="167.08008" target-width="142.18997" target-x="318.39" target-y="1026.2"></path><path d="M 953.57 682.72 C 953.83 669.72 954.35 656.65 955.80 643.72 C 956.44 637.97 947.44 638.02 946.80 643.72 C 945.35 656.72 944.80 669.72 944.57 682.72 C 944.45 688.52 953.45 688.52 953.57 682.72 Z" fill="#331403" fill-rule="nonzero" group-id="5" node-id="286" stroke="none" target-height="50.55005" target-width="11.98999" target-x="944.45" target-y="637.97"></path><path d="M 312.90 772.00 C 314.18 815.36 320.24 860.62 345.09 897.36 C 376.87 944.36 431.87 966.51 485.62 977.12 C 529.91 985.86 575.36 988.00 620.40 987.54 C 664.73 987.08 709.30 983.99 752.84 975.33 C 807.94 964.38 864.96 943.33 902.84 899.97 C 931.06 867.69 944.39 826.90 949.57 784.97 C 950.18 780.04 950.68 775.09 951.10 770.13 C 951.60 764.36 942.59 764.39 942.10 770.13 C 938.73 809.70 929.22 849.29 905.73 882.00 C 875.07 924.69 825.42 948.00 775.82 960.88 C 736.59 971.00 696.00 975.58 655.55 977.49 C 609.32 979.68 562.55 979.16 516.55 973.08 C 460.66 965.69 399.55 949.08 361.66 904.41 C 334.17 872.00 325.10 829.33 322.60 787.91 C 322.28 782.59 322.06 777.27 321.90 771.91 C 321.73 766.14 312.73 766.11 312.90 771.91 Z" fill="#331403" fill-rule="nonzero" group-id="5" node-id="288" stroke="none" target-height="223.64001" target-width="638.87" target-x="312.73" target-y="764.36"></path><path d="M 309.05 629.67 C 311.81 646.41 312.69 663.38 313.00 680.33 C 313.11 686.12 322.11 686.14 322.00 680.33 C 321.68 662.56 320.62 644.83 317.73 627.27 C 316.79 621.57 308.11 623.99 309.05 629.67 Z" fill="#331403" fill-rule="nonzero" group-id="5" node-id="290" stroke="none" target-height="64.57001" target-width="14" target-x="308.11" target-y="621.57"></path><path d="M 320.28 665.00 C 311.35 648.18 292.05 640.63 273.80 640.49 C 253.06 640.34 232.03 649.22 218.50 665.10 C 200.33 686.40 198.70 714.95 204.33 741.32 C 210.07 768.20 223.68 795.77 250.50 806.66 C 272.77 815.66 298.76 810.66 318.65 798.12 C 323.54 795.05 319.03 787.26 314.11 790.35 C 298.74 800.03 279.49 805.03 261.52 800.76 C 237.66 795.08 223.33 774.14 216.37 751.84 C 208.80 727.59 206.26 699.17 220.79 676.93 C 230.79 661.57 248.20 651.76 266.34 649.85 C 283.68 648.02 303.78 653.09 312.50 669.54 C 315.22 674.66 322.99 670.12 320.28 665.00 Z" fill="#331403" fill-rule="nonzero" group-id="5" node-id="292" stroke="none" target-height="175.31995" target-width="124.84001" target-x="198.7" target-y="640.34"></path><path d="M 951.77 669.57 C 959.36 655.26 975.82 649.46 991.26 649.52 C 1009.54 649.60 1027.52 657.52 1039.42 671.52 C 1055.71 690.64 1056.15 717.14 1050.94 740.52 C 1045.67 764.09 1033.86 789.52 1009.76 798.70 C 990.00 806.20 967.64 801.43 950.16 790.43 C 945.25 787.34 940.73 795.12 945.62 798.20 C 963.27 809.31 985.50 814.50 1005.98 809.31 C 1032.50 802.59 1048.80 779.31 1056.58 754.31 C 1064.92 727.60 1067.09 695.97 1050.76 671.72 C 1038.76 653.95 1019.09 643.09 997.93 640.93 C 977.51 638.84 954.16 645.93 944.00 665.08 C 941.29 670.19 949.00 674.74 951.77 669.62 Z" fill="#331403" fill-rule="nonzero" group-id="5" node-id="294" stroke="none" target-height="175.65997" target-width="126.359985" target-x="940.73" target-y="638.84"></path><path d="M 533.16 202.59 C 523.35 168.50 486.16 147.20 451.79 155.23 C 416.88 163.38 392.27 196.79 393.65 232.33 C 394.54 253.10 402.87 272.86 417.12 288.00 C 421.12 292.23 427.45 285.85 423.48 281.63 C 401.60 258.37 395.28 221.37 412.71 193.73 C 429.09 167.73 462.55 154.65 491.27 167.67 C 507.05 174.83 519.66 188.19 524.48 204.96 C 526.08 210.51 534.77 208.15 533.16 202.56 Z" fill="#331403" fill-rule="nonzero" group-id="5" node-id="296" stroke="none" target-height="145.03001" target-width="142.50003" target-x="392.27" target-y="147.2"></path><path d="M 404.52 263.00 C 376.52 273.95 343.46 286.94 328.90 315.36 C 317.23 338.12 318.53 370.03 341.51 385.20 C 346.36 388.41 350.87 380.62 346.05 377.43 C 326.19 364.31 327.46 334.97 338.53 316.54 C 352.95 292.54 382.14 281.38 406.91 271.68 C 412.24 269.59 409.91 260.88 404.52 263.00 Z" fill="#331403" fill-rule="nonzero" group-id="5" node-id="298" stroke="none" target-height="127.53" target-width="95.00998" target-x="317.23" target-y="260.88"></path><path d="M 528.82 187.71 C 555.45 185.66 585.31 197.89 596.82 223.40 C 599.19 228.67 606.95 224.10 604.59 218.86 C 591.91 190.72 558.28 176.44 528.84 178.71 C 523.11 179.15 523.06 188.16 528.84 187.71 Z" fill="#331403" fill-rule="nonzero" group-id="5" node-id="300" stroke="none" target-height="52.229996" target-width="83.890015" target-x="523.06" target-y="176.44"></path><path d="M 596.58 239.52 C 613.28 220.10 638.00 209.48 663.58 210.73 C 686.94 212.03 708.21 225.48 714.73 248.73 C 719.60 266.14 716.28 284.67 710.80 301.50 C 709.00 307.02 717.69 309.39 719.48 303.90 C 728.94 274.83 730.48 238.46 704.78 217.06 C 684.30 200.06 654.78 198.11 630.26 206.40 C 614.77 211.58 600.96 220.83 590.26 233.18 C 586.51 237.56 592.85 243.95 596.63 239.54 Z" fill="#331403" fill-rule="nonzero" group-id="5" node-id="302" stroke="none" target-height="111.280014" target-width="143.96997" target-x="586.51" target-y="198.11"></path><path d="M 276.00 559.49 C 280.39 580.49 281.88 602.16 287.05 623.05 C 291.18 639.73 298.73 655.58 314.13 664.47 C 319.13 667.37 323.69 659.60 318.67 656.70 C 304.00 648.22 298.25 632.35 294.78 616.60 C 290.46 596.94 288.78 576.80 284.68 557.09 C 283.49 551.43 274.82 553.82 276.00 559.49 Z" fill="#331403" fill-rule="nonzero" group-id="5" node-id="304" stroke="none" target-height="115.94" target-width="48.869995" target-x="274.82" target-y="551.43"></path><path d="M 371.50 466.58 C 364.97 487.98 361.12 513.38 370.12 534.69 C 377.88 553.03 395.21 561.21 414.54 558.35 C 430.25 556.02 444.85 548.12 457.96 539.53 C 462.79 536.37 458.28 528.58 453.42 531.76 C 437.42 542.27 413.10 556.38 393.33 547.50 C 378.00 540.64 374.08 521.85 374.00 506.73 C 373.93 493.88 376.44 481.22 380.18 468.97 C 381.87 463.42 373.18 461.04 371.50 466.58 Z" fill="#331403" fill-rule="nonzero" group-id="5" node-id="306" stroke="none" target-height="100.17001" target-width="101.67001" target-x="361.12" target-y="461.04"></path><path d="M 479.26 492.73 C 478.91 517.66 484.48 548.37 509.58 560.09 C 524.80 567.21 542.86 566.03 558.88 562.49 C 573.07 559.36 586.47 552.69 596.43 541.96 C 607.43 530.11 613.63 514.88 618.14 499.57 L 609.46 499.57 C 616.36 523.94 635.46 544.49 659.57 552.51 C 670.93 556.39 683.20 556.77 694.78 553.58 C 708.25 549.69 718.99 540.82 727.40 529.84 C 730.93 525.25 723.11 520.76 719.63 525.30 C 705.39 543.87 683.07 551.30 660.86 543.45 C 640.25 536.19 624.05 518.05 618.14 497.18 C 617.55 495.27 615.79 493.97 613.80 493.97 C 611.81 493.97 610.05 495.27 609.46 497.18 C 605.93 509.18 601.46 521.18 593.80 531.18 C 586.12 541.12 575.52 548.41 563.48 552.00 C 549.28 556.40 532.07 558.52 517.73 553.74 C 506.62 550.05 498.63 541.31 494.18 530.68 C 489.18 518.78 488.08 505.52 488.26 492.75 C 488.34 486.96 479.34 486.96 479.26 492.75 Z" fill="#331403" fill-rule="nonzero" group-id="5" node-id="308" stroke="none" target-height="80.25003" target-width="252.01999" target-x="478.91" target-y="486.96"></path><path d="M 733.64 475.25 C 733.34 498.82 735.79 523.90 747.10 545.03 C 754.36 558.59 766.23 570.37 781.63 573.80 C 815.39 581.33 842.63 551.15 854.03 522.86 C 864.03 497.91 865.08 470.34 861.44 443.97 C 860.65 438.26 851.97 440.69 852.76 446.36 C 857.86 483.23 852.31 527.89 822.30 553.52 C 812.82 561.61 800.40 567.06 787.75 565.74 C 774.88 564.41 764.39 555.82 757.62 545.20 C 744.62 524.78 742.34 498.84 742.62 475.20 C 742.69 469.41 733.69 469.40 733.62 475.20 Z" fill="#331403" fill-rule="nonzero" group-id="5" node-id="310" stroke="none" target-height="143.07" target-width="131.73999" target-x="733.34" target-y="438.26"></path><path d="M 724.74 278.59 C 743.99 256.98 775.82 248.33 803.24 258.06 C 830.66 267.79 849.81 295.54 850.53 324.33 C 850.67 330.11 859.67 330.13 859.53 324.33 C 858.90 299.00 846.05 275.20 825.80 260.11 C 805.33 244.86 778.14 241.34 754.03 249.18 C 740.31 253.56 728.01 261.52 718.38 272.23 C 714.54 276.54 720.88 282.93 724.74 278.59 Z" fill="#331403" fill-rule="nonzero" group-id="5" node-id="312" stroke="none" target-height="88.79001" target-width="145.13" target-x="714.54" target-y="241.34"></path><path d="M 303.74 636.38 C 339.79 623.45 378.25 617.22 416.16 612.78 C 464.31 607.13 512.85 604.88 561.31 604.44 C 612.64 603.98 663.92 605.62 715.14 609.35 C 761.58 612.72 808.00 617.66 853.90 625.61 C 887.60 631.44 922.08 638.28 953.84 651.32 C 956.53 652.42 959.19 653.61 961.84 654.86 C 967.04 657.33 971.62 649.58 966.38 647.09 C 936.76 633.00 903.76 625.84 871.73 619.73 C 826.73 611.15 781.11 605.73 735.49 601.94 C 684.11 597.63 632.61 595.44 580.99 595.37 C 531.36 595.28 481.64 597.04 432.25 602.03 C 392.19 606.08 351.65 611.77 313.11 623.78 C 309.17 625.00 305.26 626.31 301.38 627.70 C 295.97 629.65 298.30 638.35 303.77 636.38 Z" fill="#331403" fill-rule="nonzero" group-id="5" node-id="314" stroke="none" target-height="62.049988" target-width="675.65" target-x="295.97" target-y="595.28"></path><path d="M 845.71 537.38 C 872.87 543.70 899.83 551.24 925.83 561.38 C 945.59 569.09 965.52 578.38 982.25 591.59 C 986.74 595.15 993.15 588.82 988.61 585.23 C 971.37 571.60 951.43 561.95 931.11 553.84 C 904.23 543.11 876.26 535.26 848.11 528.70 C 842.47 527.38 840.11 536.06 845.71 537.38 Z" fill="#331403" fill-rule="nonzero" group-id="5" node-id="316" stroke="none" target-height="67.77002" target-width="153.04004" target-x="840.11" target-y="527.38"></path><path d="M 282.60 562.17 C 310.76 546.68 341.74 537.00 372.90 529.65 C 378.54 528.32 376.15 519.65 370.51 520.97 C 338.60 528.50 306.88 538.55 278.06 554.40 C 272.98 557.20 277.52 564.97 282.60 562.17 Z" fill="#331403" fill-rule="nonzero" group-id="5" node-id="318" stroke="none" target-height="45.319946" target-width="105.56" target-x="272.98" target-y="519.65"></path><path d="M 326.53 363.09 C 290.97 361.87 255.33 380.76 237.13 411.52 C 224.13 433.52 220.21 464.38 229.59 488.41 C 235.25 502.94 245.81 513.87 260.52 519.26 C 265.96 521.26 268.31 512.56 262.91 510.58 C 239.00 501.83 232.16 475.39 234.00 452.32 C 236.19 424.68 251.07 400.73 274.66 386.08 C 290.19 376.37 308.25 371.50 326.55 372.08 C 332.35 372.28 332.34 363.28 326.55 363.08 Z" fill="#331403" fill-rule="nonzero" group-id="5" node-id="320" stroke="none" target-height="159.39001" target-width="112.14" target-x="220.21" target-y="361.87"></path><path d="M 945.56 418.70 C 970.96 420.13 999.56 430.05 1010.09 455.55 C 1018.24 475.33 1008.46 502.23 985.91 506.32 C 980.22 507.32 982.63 516.03 988.30 515.00 C 1014.84 510.18 1028.11 478.40 1019.30 454.48 C 1008.00 424.00 975.67 411.39 945.56 409.70 C 939.77 409.37 939.79 418.37 945.56 418.70 Z" fill="#331403" fill-rule="nonzero" group-id="5" node-id="322" stroke="none" target-height="106.660034" target-width="88.339966" target-x="939.77" target-y="409.37"></path><path d="M 978.25 516.14 C 997.93 520.87 1024.91 527.81 1029.11 551.36 C 1033.59 576.44 1002.66 585.26 984.38 589.52 C 978.74 590.83 981.13 599.52 986.77 598.19 C 1000.04 595.10 1013.69 591.68 1024.42 582.82 C 1033.61 575.23 1039.66 563.92 1038.22 551.82 C 1034.83 523.15 1004.54 513.22 980.64 507.48 C 975.01 506.13 972.64 514.80 978.25 516.16 Z" fill="#331403" fill-rule="nonzero" group-id="5" node-id="324" stroke="none" target-height="93.390015" target-width="67.02002" target-x="972.64" target-y="506.13"></path><path d="M 981.09 587.22 C 975.87 607.94 968.98 629.22 960.20 648.70 C 957.83 653.94 965.59 658.52 967.97 653.24 C 977.07 632.70 984.37 611.41 989.77 589.61 C 991.18 583.99 982.51 581.61 981.09 587.22 Z" fill="#331403" fill-rule="nonzero" group-id="5" node-id="326" stroke="none" target-height="76.910034" target-width="33.349976" target-x="957.83" target-y="581.61"></path><path d="M 864.06 319.21 C 872.33 309.21 883.14 300.13 896.58 298.85 C 907.52 297.80 917.97 301.92 926.79 308.12 C 945.55 321.30 959.67 345.24 961.57 368.12 C 962.51 379.43 960.27 390.97 951.57 398.89 C 947.28 402.80 953.66 409.15 957.93 405.25 C 977.69 387.25 971.40 356.10 960.68 335.01 C 949.23 312.46 926.98 289.49 899.89 289.65 C 882.71 289.75 868.22 299.98 857.66 312.81 C 854.01 317.25 860.34 323.65 864.03 319.17 Z" fill="#331403" fill-rule="nonzero" group-id="5" node-id="328" stroke="none" target-height="119.66" target-width="123.67999" target-x="854.01" target-y="289.49"></path><path d="M 250.31 511.74 C 234.47 527.29 232.48 551.66 241.71 571.22 C 245.25 578.73 251.04 586.15 259.03 589.16 C 267.21 592.24 275.24 589.01 281.03 582.95 C 285.03 578.76 278.68 572.39 274.66 576.59 C 263.98 587.76 253.08 575.66 248.66 564.91 C 242.23 549.16 244.21 530.31 256.66 518.10 C 260.80 514.04 254.43 507.67 250.30 511.74 Z" fill="#331403" fill-rule="nonzero" group-id="5" node-id="330" stroke="none" target-height="84.56998" target-width="52.550003" target-x="232.48" target-y="507.67"></path><path d="M 645.00 830.30 C 668.75 833.15 690.44 819.48 698.78 797.23 C 700.78 791.80 692.12 789.46 690.10 794.84 C 683.10 813.59 664.54 823.64 645.00 821.30 C 639.26 820.61 639.31 829.61 645.00 830.30 Z" fill="#331403" fill-rule="nonzero" group-id="5" node-id="332" stroke="none" target-height="43.690002" target-width="61.52002" target-x="639.26" target-y="789.46"></path><path d="M 539.68 992.00 C 574.04 1036.32 644.41 1034.84 691.13 1013.78 C 703.71 1008.10 715.62 1000.40 725.01 990.20 C 728.93 985.95 722.58 979.57 718.64 983.84 C 702.25 1001.63 678.28 1011.26 654.97 1015.84 C 629.90 1020.78 602.49 1020.05 578.66 1010.18 C 565.83 1004.98 554.59 996.51 546.05 985.62 C 542.50 981.05 536.18 987.46 539.68 991.98 Z" fill="#331403" fill-rule="nonzero" group-id="5" node-id="334" stroke="none" target-height="56.74994" target-width="192.75" target-x="536.18" target-y="979.57"></path><path d="M 478.91 1006.76 C 504.13 1048.38 546.84 1076.34 595.07 1082.82 C 641.38 1089.22 689.75 1078.07 729.60 1053.89 C 751.78 1040.59 770.98 1022.86 786.00 1001.80 C 789.35 997.06 781.55 992.55 778.23 997.26 C 752.92 1033.15 713.37 1057.78 671.23 1068.95 C 628.74 1080.22 581.68 1077.89 542.66 1056.51 C 519.38 1043.75 500.42 1024.82 486.66 1002.22 C 483.66 997.28 475.86 1001.80 478.89 1006.76 Z" fill="#331403" fill-rule="nonzero" group-id="5" node-id="336" stroke="none" target-height="96.66998" target-width="313.49" target-x="475.86" target-y="992.55"></path><path d="M 475.00 1186.00 C 474.14 1158.39 472.14 1130.85 469.00 1103.38 C 467.49 1090.22 465.72 1077.10 463.69 1064.01 C 461.63 1050.71 459.79 1037.19 455.69 1024.33 C 453.95 1018.83 445.26 1021.18 447.01 1026.72 C 450.89 1038.96 452.70 1051.80 454.68 1064.45 C 456.81 1078.04 458.64 1091.67 460.19 1105.34 C 463.22 1132.14 465.15 1159.03 465.96 1186.00 C 466.14 1191.78 475.15 1191.80 474.96 1186.00 Z" fill="#331403" fill-rule="nonzero" group-id="5" node-id="338" stroke="none" target-height="172.97003" target-width="29.889984" target-x="445.26" target-y="1018.83"></path><path d="M 804.12 1186.00 C 804.98 1158.39 806.98 1130.85 810.12 1103.38 C 811.69 1089.71 813.55 1076.09 815.72 1062.50 C 817.83 1049.18 819.72 1035.63 824.42 1022.93 C 826.42 1017.49 817.73 1015.14 815.74 1020.54 C 811.05 1033.24 809.16 1046.79 807.04 1060.10 C 804.86 1073.83 802.96 1087.61 801.35 1101.42 C 798.06 1129.51 795.98 1157.70 795.13 1186.00 C 794.95 1191.80 803.95 1191.79 804.13 1186.00 Z" fill="#331403" fill-rule="nonzero" group-id="5" node-id="340" stroke="none" target-height="176.66003" target-width="31.46997" target-x="794.95" target-y="1015.14"></path></g><g node-id="357"><path d="M 994.54 774.00 C 994.54 781.15 988.75 786.94 981.60 786.94 C 974.45 786.94 968.66 781.15 968.66 774.00 C 968.66 766.85 974.45 761.06 981.60 761.06 C 988.75 761.06 994.54 766.85 994.54 774.00 Z" fill="#e9f1f4" fill-rule="nonzero" group-id="6" node-id="344" stroke="none" target-height="25.880005" target-width="25.880005" target-x="968.66" target-y="761.06"></path><path d="M 990.05 774.00 C 989.50 784.79 973.16 785.00 973.16 774.00 C 973.16 763.00 989.50 763.21 990.05 774.00 C 990.34 779.77 999.34 779.80 999.05 774.00 C 998.57 764.54 991.43 756.56 981.60 756.56 C 972.13 756.79 964.57 764.53 964.57 774.00 C 964.57 783.48 972.13 791.22 981.60 791.45 C 991.43 791.45 998.60 783.45 999.05 774.00 C 999.34 768.21 990.34 768.23 990.05 774.00 Z" fill="#5ea520" fill-rule="nonzero" group-id="6" node-id="346" stroke="none" target-height="34.890015" target-width="34.77002" target-x="964.57" target-y="756.56"></path><path d="M 293.27 774.00 C 293.27 781.15 287.48 786.94 280.33 786.94 C 273.18 786.94 267.39 781.15 267.39 774.00 C 267.39 766.85 273.18 761.06 280.33 761.06 C 287.48 761.06 293.27 766.85 293.27 774.00 Z" fill="#e9f1f4" fill-rule="nonzero" group-id="6" node-id="348" stroke="none" target-height="25.880005" target-width="25.879974" target-x="267.39" target-y="761.06"></path><path d="M 288.77 774.00 C 288.23 784.79 271.88 785.00 271.88 774.00 C 271.88 763.00 288.23 763.21 288.77 774.00 C 289.06 779.77 298.07 779.80 297.77 774.00 C 297.29 764.54 290.15 756.56 280.33 756.56 C 274.00 756.41 268.08 759.70 264.87 765.16 C 261.66 770.62 261.66 777.39 264.87 782.85 C 268.08 788.31 274.00 791.60 280.33 791.45 C 290.15 791.45 297.33 783.45 297.77 774.00 C 298.06 768.21 289.06 768.23 288.77 774.00 Z" fill="#5ea520" fill-rule="nonzero" group-id="6" node-id="350" stroke="none" target-height="35.190002" target-width="36.410004" target-x="261.66" target-y="756.41"></path></g></svg>