<?xml version="1.0" standalone="no"?><!DOCTYPE svg PUBLIC "-//W3C//DTD SVG 1.1//EN" "http://www.w3.org/Graphics/SVG/1.1/DTD/svg11.dtd"><svg height="1200" node-id="1" sillyvg="true" template-height="1200" template-width="1200" version="1.1" viewBox="0 0 1200 1200" width="1200" xmlns="http://www.w3.org/2000/svg" xmlns:xlink="http://www.w3.org/1999/xlink"><defs node-id="45"></defs><g node-id="127"><path d="M -0.50 0.00 L 1199.50 0.00 L 1199.50 1200.00 L -0.50 1200.00 Z" fill="#256ae5" fill-rule="nonzero" group-id="1" node-id="48" stroke="none" target-height="1200" target-width="1200" target-x="-0.5" target-y="0"></path></g><g node-id="128"><path d="M 465.86 442.51 C 482.94 430.12 487.07 406.39 475.17 388.96 C 463.28 371.53 439.68 366.72 421.91 378.11 C 386.49 400.70 340.96 399.77 306.50 375.74 C 272.04 351.71 255.42 309.31 264.37 268.27 C 267.55 254.57 263.10 240.23 252.74 230.72 C 242.38 221.22 227.71 218.02 214.33 222.36 C 200.96 226.71 190.96 237.91 188.16 251.69 C 172.52 323.51 201.60 397.68 261.89 439.72 C 322.18 481.76 401.84 483.41 463.82 443.90 C 464.52 443.46 465.20 443.00 465.86 442.51 Z" fill="#d37f11" fill-rule="nonzero" group-id="2" node-id="52" stroke="none" target-height="265.39" target-width="314.55" target-x="172.52" target-y="218.02"></path><path d="M 987.10 388.80 C 932.91 473.14 820.72 497.78 736.18 443.91 C 735.48 443.46 734.80 443.00 734.18 442.52 C 716.65 430.28 712.25 406.20 724.31 388.54 C 736.37 370.89 760.40 366.24 778.18 378.12 C 813.60 400.65 859.08 399.67 893.50 375.66 C 927.93 351.64 944.54 309.28 935.62 268.27 C 931.04 247.22 944.40 226.45 965.45 221.88 C 986.49 217.30 1007.26 230.65 1011.84 251.70 C 1022.24 298.87 1013.33 348.24 987.10 388.80 Z" fill="#d37f11" fill-rule="nonzero" group-id="2" node-id="54" stroke="none" target-height="280.47998" target-width="309.99" target-x="712.25" target-y="217.3"></path><path d="M 969.75 372.71 C 916.69 455.28 807.72 480.90 723.42 430.63 C 714.36 415.08 717.12 395.34 730.11 382.88 C 743.09 370.41 762.91 368.44 778.09 378.12 C 813.51 400.71 859.04 399.77 893.50 375.74 C 927.95 351.71 944.57 309.31 935.62 268.27 C 932.47 253.76 937.83 238.72 949.45 229.47 C 961.07 220.22 976.93 218.38 990.36 224.71 C 992.28 228.11 993.67 231.78 994.50 235.60 C 1004.89 282.77 995.98 332.15 969.75 372.71 Z" fill="#ef9616" fill-rule="nonzero" group-id="2" node-id="56" stroke="none" target-height="262.52" target-width="290.53003" target-x="714.36" target-y="218.38"></path><path d="M 230.25 372.71 C 283.31 455.28 392.28 480.90 476.58 430.63 C 485.64 415.08 482.88 395.34 469.89 382.88 C 456.91 370.41 437.09 368.44 421.91 378.12 C 386.49 400.71 340.96 399.77 306.50 375.74 C 272.05 351.71 255.43 309.31 264.38 268.27 C 267.53 253.76 262.17 238.72 250.55 229.47 C 238.93 220.22 223.07 218.38 209.64 224.71 C 207.72 228.11 206.33 231.78 205.50 235.60 C 195.11 282.77 204.02 332.15 230.25 372.71 Z" fill="#ef9616" fill-rule="nonzero" group-id="2" node-id="58" stroke="none" target-height="262.52" target-width="290.53003" target-x="195.11" target-y="218.38"></path><path d="M 1106.16 443.28 C 1106.16 443.70 1106.11 444.12 1106.07 444.54 C 1100.68 519.12 1036.21 575.44 961.58 570.75 L 838.53 563.00 L 847.09 427.00 L 852.09 427.32 Z" fill="#d89273" fill-rule="nonzero" group-id="2" node-id="60" stroke="none" target-height="148.44" target-width="267.63" target-x="838.53" target-y="427"></path><path d="M 1106.16 443.28 C 1106.16 443.70 1106.11 444.12 1106.07 444.54 C 1085.85 502.14 1029.80 539.27 968.88 535.45 L 845.88 527.71 L 852.19 427.30 Z" fill="#eaac8c" fill-rule="nonzero" group-id="2" node-id="62" stroke="none" target-height="111.97003" target-width="260.28003" target-x="845.88" target-y="427.3"></path><g node-id="129"><path d="M 93.84 443.27 L 93.84 443.27 L 93.84 443.27 L 352.91 426.97 L 352.91 426.97 L 361.47 562.99 L 361.47 562.99 L 238.42 570.73 L 228.99 571.00 L 219.78 570.65 L 210.78 569.70 L 201.95 568.15 L 193.22 566.02 L 184.76 563.36 L 176.56 560.18 L 168.60 556.48 L 160.88 552.27 L 153.51 547.61 L 146.46 542.51 L 139.73 536.95 L 133.37 530.97 L 127.42 524.62 L 121.88 517.88 L 116.73 510.75 L 112.06 503.32 L 107.88 495.59 L 104.19 487.53 L 100.97 479.12 L 98.33 470.57 L 96.26 461.75 L 94.76 452.66 L 93.84 443.27 Z" fill="#d89273" fill-rule="nonzero" group-id="2,3" node-id="66" stroke="none" target-height="144.03" target-width="267.63" target-x="93.84" target-y="426.97"></path></g><path d="M 92.38 443.28 C 92.38 443.70 92.43 444.12 92.47 444.54 C 112.69 502.14 168.74 539.27 229.66 535.45 L 352.66 527.71 L 346.40 427.30 Z" fill="#eaac8c" fill-rule="nonzero" group-id="2" node-id="69" stroke="none" target-height="111.97003" target-width="260.28" target-x="92.38" target-y="427.3"></path><path d="M 956.61 741.48 L 956.61 741.60 C 986.73 776.31 986.73 827.89 956.61 862.60 L 956.61 862.72 C 986.73 897.43 986.73 949.01 956.61 983.72 L 956.61 983.84 C 986.73 1018.55 986.73 1070.13 956.61 1104.84 L 956.61 1104.96 C 979.31 1131.14 985.45 1167.82 972.52 1199.96 L 227.52 1199.96 C 214.59 1167.82 220.73 1131.14 243.43 1104.96 L 243.43 1104.84 C 213.31 1070.13 213.31 1018.55 243.43 983.84 L 243.43 983.72 C 213.31 949.01 213.31 897.43 243.43 862.72 L 243.43 862.60 C 213.31 827.89 213.31 776.31 243.43 741.60 L 243.43 741.48 C 213.29 706.74 213.31 655.12 243.48 620.41 C 223.90 597.87 216.42 567.26 223.40 538.23 C 230.39 509.21 250.98 485.35 278.67 474.19 C 271.69 446.58 277.84 417.29 295.34 394.82 C 312.83 372.35 339.71 359.20 368.19 359.19 C 369.87 359.19 371.54 359.24 373.19 359.33 C 378.13 313.48 416.17 278.32 462.27 277.00 C 463.16 277.00 464.06 277.00 464.96 277.00 C 483.82 276.97 502.24 282.75 517.70 293.55 C 534.98 269.00 563.13 254.41 593.15 254.45 C 595.45 254.45 597.74 254.54 600.00 254.70 C 602.26 254.54 604.55 254.45 606.85 254.45 C 636.86 254.47 664.99 269.04 682.30 293.55 C 709.06 274.92 743.66 271.79 773.33 285.31 C 803.00 298.83 823.34 327.00 826.84 359.41 C 828.50 359.32 830.17 359.27 831.84 359.27 C 860.32 359.28 887.20 372.43 904.69 394.90 C 922.19 417.37 928.34 446.66 921.36 474.27 C 949.05 485.43 969.64 509.29 976.63 538.31 C 983.61 567.34 976.13 597.95 956.55 620.49 C 986.72 655.20 986.74 706.82 956.60 741.56 Z" fill="#d7d8e2" fill-rule="nonzero" group-id="2" node-id="71" stroke="none" target-height="945.5499" target-width="773.45" target-x="213.29" target-y="254.41"></path><path d="M 886.23 741.48 L 886.23 741.60 C 916.35 776.31 916.35 827.89 886.23 862.60 L 886.23 862.72 C 916.35 897.43 916.35 949.01 886.23 983.72 L 886.23 983.84 C 916.35 1018.55 916.35 1070.13 886.23 1104.84 L 886.23 1104.96 C 908.93 1131.14 915.07 1167.82 902.14 1199.96 L 227.48 1199.96 C 214.55 1167.82 220.69 1131.14 243.39 1104.96 L 243.39 1104.84 C 213.27 1070.13 213.27 1018.55 243.39 983.84 L 243.39 983.72 C 213.27 949.01 213.27 897.43 243.39 862.72 L 243.39 862.60 C 213.27 827.89 213.27 776.31 243.39 741.60 L 243.39 741.48 C 213.25 706.74 213.27 655.12 243.44 620.41 C 223.86 597.87 216.38 567.26 223.36 538.23 C 230.35 509.21 250.94 485.35 278.63 474.19 C 271.65 446.58 277.80 417.29 295.30 394.82 C 312.79 372.35 339.67 359.20 368.15 359.19 C 369.83 359.19 371.50 359.24 373.15 359.33 C 376.79 325.72 398.50 296.77 429.75 283.87 C 435.93 286.43 441.82 289.65 447.31 293.47 C 464.62 268.96 492.75 254.39 522.76 254.37 C 525.06 254.37 527.35 254.46 529.61 254.62 C 531.87 254.46 534.16 254.37 536.46 254.37 C 566.48 254.33 594.63 268.92 611.91 293.47 C 627.37 282.67 645.79 276.89 664.65 276.92 C 665.55 276.92 666.45 276.92 667.34 276.92 C 713.46 278.23 751.53 313.41 756.45 359.29 C 758.11 359.20 759.78 359.15 761.45 359.15 C 789.93 359.16 816.81 372.31 834.30 394.78 C 851.80 417.25 857.95 446.54 850.97 474.15 C 878.66 485.31 899.25 509.17 906.24 538.19 C 913.22 567.22 905.74 597.83 886.16 620.37 C 916.33 655.08 916.35 706.70 886.21 741.44 Z" fill="#e7e8f2" fill-rule="nonzero" group-id="2" node-id="73" stroke="none" target-height="945.62994" target-width="703.1" target-x="213.25" target-y="254.33"></path><path d="M 845.73 650.25 L 845.73 732.53 C 845.75 786.57 827.84 839.08 794.82 881.85 C 749.82 940.37 679.11 978.26 600.00 978.26 C 506.69 978.26 425.08 925.54 383.51 848.42 C 364.30 812.81 354.26 772.99 354.27 732.53 L 354.27 650.25 C 354.27 515.10 464.85 404.52 600.00 404.52 C 665.15 404.55 727.60 430.52 773.55 476.70 C 786.12 489.26 797.30 503.14 806.91 518.09 C 832.28 557.50 845.76 603.38 845.73 650.25 Z" fill="#edc19d" fill-rule="nonzero" group-id="2" node-id="75" stroke="none" target-height="573.74" target-width="491.5" target-x="354.26" target-y="404.52"></path><path d="M 824.36 608.79 L 824.36 691.07 C 824.38 745.11 806.47 797.62 773.45 840.39 C 728.45 898.91 657.74 936.80 578.63 936.80 C 492.01 936.80 415.48 891.37 371.70 823.17 C 360.16 794.34 354.25 763.58 354.27 732.53 L 354.27 650.25 C 354.27 515.10 464.85 404.52 600.00 404.52 C 665.15 404.55 727.60 430.52 773.55 476.70 C 786.12 489.26 797.30 503.14 806.91 518.09 C 818.47 546.93 824.39 577.72 824.36 608.79 Z" fill="#fddbbc" fill-rule="nonzero" group-id="2" node-id="77" stroke="none" target-height="532.28" target-width="470.14" target-x="354.25" target-y="404.52"></path><path d="M 599.27 792.38 C 597.59 792.38 595.94 791.91 594.51 791.02 L 552.51 764.87 C 548.29 762.24 547.00 756.69 549.63 752.47 C 552.26 748.25 557.81 746.96 562.03 749.59 L 599.25 772.78 L 638.00 748.68 C 642.23 746.06 647.78 747.37 650.39 751.61 C 653.01 755.84 651.70 761.38 647.47 764.00 L 604.00 791.00 C 602.58 791.89 600.94 792.37 599.27 792.38 Z" fill="#282828" fill-rule="nonzero" group-id="2" node-id="79" stroke="none" target-height="46.320007" target-width="106.01001" target-x="547" target-y="746.06"></path><path d="M 599.27 885.23 C 594.30 885.23 590.27 881.20 590.27 876.23 L 590.27 783.38 C 590.27 778.41 594.30 774.38 599.27 774.38 C 604.24 774.38 608.27 778.41 608.27 783.38 L 608.27 876.23 C 608.27 881.20 604.24 885.23 599.27 885.23 Z" fill="#282828" fill-rule="nonzero" group-id="2" node-id="81" stroke="none" target-height="110.849976" target-width="18" target-x="590.27" target-y="774.38"></path><path d="M 600.00 885.23 C 564.78 885.24 531.86 867.77 512.12 838.61 C 509.33 834.50 510.41 828.90 514.52 826.11 C 518.63 823.32 524.23 824.40 527.02 828.51 C 543.41 852.74 570.76 867.26 600.02 867.26 C 629.28 867.26 656.63 852.74 673.02 828.51 C 675.81 824.40 681.41 823.32 685.52 826.11 C 689.63 828.90 690.71 834.50 687.92 838.61 C 668.17 867.78 635.23 885.25 600.00 885.23 Z" fill="#282828" fill-rule="nonzero" group-id="2" node-id="83" stroke="none" target-height="61.929993" target-width="181.38004" target-x="509.33" target-y="823.32"></path><path d="M 839.96 584.75 C 839.96 649.50 787.47 701.99 722.72 701.99 C 657.97 701.99 605.48 649.50 605.48 584.75 C 605.48 520.00 657.97 467.51 722.72 467.51 C 787.47 467.51 839.96 520.00 839.96 584.75 Z" fill="#ffffff" fill-rule="nonzero" group-id="2" node-id="85" stroke="none" target-height="234.47998" target-width="234.48004" target-x="605.48" target-y="467.51"></path><path d="M 594.52 584.75 C 594.52 649.50 542.03 701.99 477.28 701.99 C 412.53 701.99 360.04 649.50 360.04 584.75 C 360.04 520.00 412.53 467.51 477.28 467.51 C 542.03 467.51 594.52 520.00 594.52 584.75 Z" fill="#ffffff" fill-rule="nonzero" group-id="2" node-id="87" stroke="none" target-height="234.47998" target-width="234.48001" target-x="360.04" target-y="467.51"></path><path d="M 507.08 600.00 C 507.08 616.46 493.74 629.80 477.28 629.80 C 460.82 629.80 447.48 616.46 447.48 600.00 C 447.48 583.54 460.82 570.20 477.28 570.20 C 493.74 570.20 507.08 583.54 507.08 600.00 Z" fill="#282828" fill-rule="nonzero" group-id="2" node-id="89" stroke="none" target-height="59.599976" target-width="59.599976" target-x="447.48" target-y="570.2"></path><path d="M 752.52 600.00 C 752.52 616.46 739.18 629.80 722.72 629.80 C 706.26 629.80 692.92 616.46 692.92 600.00 C 692.92 583.54 706.26 570.20 722.72 570.20 C 739.18 570.20 752.52 583.54 752.52 600.00 Z" fill="#282828" fill-rule="nonzero" group-id="2" node-id="91" stroke="none" target-height="59.599976" target-width="59.600037" target-x="692.92" target-y="570.2"></path><path d="M 735.93 369.00 C 723.26 368.98 711.08 373.86 701.93 382.61 C 682.90 364.45 652.96 364.45 633.93 382.61 C 614.91 364.44 584.95 364.44 565.93 382.61 C 546.90 364.45 516.96 364.45 497.93 382.61 C 478.45 364.04 447.68 364.53 428.80 383.71 C 409.92 402.89 409.92 433.66 428.80 452.84 C 447.68 472.02 478.45 472.51 497.93 453.94 C 516.96 472.10 546.90 472.10 565.93 453.94 C 584.95 472.11 614.91 472.11 633.93 453.94 C 652.96 472.10 682.90 472.10 701.93 453.94 C 717.97 469.22 742.23 471.92 761.23 460.54 C 780.24 449.16 789.31 426.49 783.41 405.14 C 777.51 383.79 758.08 369.01 735.93 369.00 Z" fill="#e7e8f2" fill-rule="nonzero" group-id="2" node-id="93" stroke="none" target-height="108.47" target-width="379.38998" target-x="409.92" target-y="364.04"></path><path d="M 523.09 346.72 C 523.09 369.49 504.64 387.94 481.87 387.94 C 459.10 387.94 440.65 369.49 440.65 346.72 C 440.65 323.95 459.10 305.50 481.87 305.50 C 504.64 305.50 523.09 323.95 523.09 346.72 Z" fill="#f9f9f9" fill-rule="nonzero" group-id="2" node-id="95" stroke="none" target-height="82.44" target-width="82.44003" target-x="440.65" target-y="305.5"></path><path d="M 867.65 1149.73 C 867.65 1172.50 849.20 1190.95 826.43 1190.95 C 803.66 1190.95 785.21 1172.50 785.21 1149.73 C 785.21 1126.96 803.66 1108.51 826.43 1108.51 C 849.20 1108.51 867.65 1126.96 867.65 1149.73 Z" fill="#f9f9f9" fill-rule="nonzero" group-id="2" node-id="97" stroke="none" target-height="82.43994" target-width="82.44" target-x="785.21" target-y="1108.51"></path><path d="M 367.12 472.46 C 367.12 488.50 354.12 501.50 338.08 501.50 C 322.04 501.50 309.04 488.50 309.04 472.46 C 309.04 456.42 322.04 443.42 338.08 443.42 C 354.12 443.42 367.12 456.42 367.12 472.46 Z" fill="#f9f9f9" fill-rule="nonzero" group-id="2" node-id="99" stroke="none" target-height="58.079987" target-width="58.079987" target-x="309.04" target-y="443.42"></path><path d="M 843.28 978.26 C 843.28 994.30 830.28 1007.30 814.24 1007.30 C 798.20 1007.30 785.20 994.30 785.20 978.26 C 785.20 962.22 798.20 949.22 814.24 949.22 C 830.28 949.22 843.28 962.22 843.28 978.26 Z" fill="#f9f9f9" fill-rule="nonzero" group-id="2" node-id="101" stroke="none" target-height="58.080017" target-width="58.080017" target-x="785.2" target-y="949.22"></path><path d="M 700.79 368.96 C 700.79 380.46 691.46 389.79 679.96 389.79 C 668.46 389.79 659.13 380.46 659.13 368.96 C 659.13 357.46 668.46 348.13 679.96 348.13 C 691.46 348.13 700.79 357.46 700.79 368.96 Z" fill="#f9f9f9" fill-rule="nonzero" group-id="2" node-id="103" stroke="none" target-height="41.660004" target-width="41.659973" target-x="659.13" target-y="348.13"></path><path d="M 560.84 424.83 C 560.84 432.68 554.47 439.05 546.62 439.05 C 538.77 439.05 532.40 432.68 532.40 424.83 C 532.40 416.98 538.77 410.61 546.62 410.61 C 554.47 410.61 560.84 416.98 560.84 424.83 Z" fill="#f9f9f9" fill-rule="nonzero" group-id="2" node-id="105" stroke="none" target-height="28.440002" target-width="28.440002" target-x="532.4" target-y="410.61"></path><path d="M 568.75 1031.88 C 568.75 1045.46 557.74 1056.47 544.16 1056.47 C 530.58 1056.47 519.57 1045.46 519.57 1031.88 C 519.57 1018.30 530.58 1007.29 544.16 1007.29 C 557.74 1007.29 568.75 1018.30 568.75 1031.88 Z" fill="#f9f9f9" fill-rule="nonzero" group-id="2" node-id="107" stroke="none" target-height="49.179993" target-width="49.179993" target-x="519.57" target-y="1007.29"></path><path d="M 701.24 1049.03 C 701.24 1067.77 686.05 1082.96 667.31 1082.96 C 648.57 1082.96 633.38 1067.77 633.38 1049.03 C 633.38 1030.29 648.57 1015.10 667.31 1015.10 C 686.05 1015.10 701.24 1030.29 701.24 1049.03 Z" fill="#f9f9f9" fill-rule="nonzero" group-id="2" node-id="109" stroke="none" target-height="67.859985" target-width="67.859985" target-x="633.38" target-y="1015.1"></path><path d="M 349.93 854.89 C 349.93 877.47 331.62 895.78 309.04 895.78 C 286.46 895.78 268.15 877.47 268.15 854.89 C 268.15 832.31 286.46 814.00 309.04 814.00 C 331.62 814.00 349.93 832.31 349.93 854.89 Z" fill="#f9f9f9" fill-rule="nonzero" group-id="2" node-id="111" stroke="none" target-height="81.78003" target-width="81.78" target-x="268.15" target-y="814"></path><path d="M 397.37 1041.22 C 397.37 1073.96 370.82 1100.51 338.08 1100.51 C 305.34 1100.51 278.79 1073.96 278.79 1041.22 C 278.79 1008.48 305.34 981.93 338.08 981.93 C 370.82 981.93 397.37 1008.48 397.37 1041.22 Z" fill="#f9f9f9" fill-rule="nonzero" group-id="2" node-id="113" stroke="none" target-height="118.58002" target-width="118.57999" target-x="278.79" target-y="981.93"></path><path d="M 488.06 1149.73 C 488.06 1172.14 469.89 1190.31 447.48 1190.31 C 425.07 1190.31 406.90 1172.14 406.90 1149.73 C 406.90 1127.32 425.07 1109.15 447.48 1109.15 C 469.89 1109.15 488.06 1127.32 488.06 1149.73 Z" fill="#f9f9f9" fill-rule="nonzero" group-id="2" node-id="115" stroke="none" target-height="81.160034" target-width="81.16" target-x="406.9" target-y="1109.15"></path><path d="M 976.37 250.82 C 976.37 258.93 969.80 265.50 961.69 265.50 C 953.58 265.50 947.01 258.93 947.01 250.82 C 947.01 242.71 953.58 236.14 961.69 236.14 C 969.80 236.14 976.37 242.71 976.37 250.82 Z" fill="#f2af5f" fill-rule="nonzero" group-id="2" node-id="117" stroke="none" target-height="29.36" target-width="29.359985" target-x="947.01" target-y="236.14"></path><path d="M 251.53 250.82 C 251.53 258.93 244.96 265.50 236.85 265.50 C 228.74 265.50 222.17 258.93 222.17 250.82 C 222.17 242.71 228.74 236.14 236.85 236.14 C 244.96 236.14 251.53 242.71 251.53 250.82 Z" fill="#f2af5f" fill-rule="nonzero" group-id="2" node-id="119" stroke="none" target-height="29.36" target-width="29.36" target-x="222.17" target-y="236.14"></path><path d="M 404.14 792.58 C 394.20 792.58 386.14 784.52 386.14 774.58 L 386.14 727.19 C 386.14 717.25 394.20 709.19 404.14 709.19 C 414.08 709.19 422.14 717.25 422.14 727.19 L 422.14 774.58 C 422.14 784.52 414.08 792.58 404.14 792.58 Z" fill="#ffedde" fill-rule="nonzero" group-id="2" node-id="121" stroke="none" target-height="83.390015" target-width="36" target-x="386.14" target-y="709.19"></path><path d="M 164.11 475.25 C 159.14 475.40 154.98 471.50 154.83 466.53 C 154.68 461.56 158.58 457.40 163.55 457.25 L 227.08 453.25 C 232.05 452.94 236.34 456.71 236.65 461.68 C 236.96 466.65 233.19 470.94 228.22 471.25 L 164.69 475.25 C 164.50 475.26 164.30 475.26 164.11 475.25 Z" fill="#f4c3ae" fill-rule="nonzero" group-id="2" node-id="123" stroke="none" target-height="22.459991" target-width="82.280014" target-x="154.68" target-y="452.94"></path><path d="M 1034.42 475.25 C 1034.23 475.26 1034.03 475.26 1033.84 475.25 L 970.31 471.25 C 965.34 470.93 961.57 466.65 961.88 461.68 C 962.20 456.70 966.49 452.93 971.46 453.25 L 1034.99 457.25 C 1039.96 457.41 1043.86 461.56 1043.70 466.53 C 1043.55 471.51 1039.39 475.41 1034.42 475.25 Z" fill="#f4c3ae" fill-rule="nonzero" group-id="2" node-id="125" stroke="none" target-height="22.480011" target-width="82.28998" target-x="961.57" target-y="452.93"></path></g></svg>