<?xml version="1.0" standalone="no"?><!DOCTYPE svg PUBLIC "-//W3C//DTD SVG 1.1//EN" "http://www.w3.org/Graphics/SVG/1.1/DTD/svg11.dtd"><svg height="1200" node-id="1" sillyvg="true" template-height="1200" template-width="1200" version="1.1" viewBox="0 0 1200 1200" width="1200" xmlns="http://www.w3.org/2000/svg" xmlns:xlink="http://www.w3.org/1999/xlink"><defs node-id="105"><clipPath id="a" node-id="5"><path d="M 875.00 1193.12 L 396.49 1193.12 C 396.49 1193.12 399.78 1115.88 416.89 1074.12 C 421.44 1063.26 429.05 1053.97 438.80 1047.37 C 476.53 1021.52 519.60 1007.89 559.26 1000.70 L 559.26 846.00 L 712.15 846.00 L 712.15 1000.70 C 751.81 1007.89 794.91 1021.52 832.64 1047.37 C 842.39 1053.97 850.01 1063.26 854.56 1074.12 C 871.66 1115.88 875.00 1193.12 875.00 1193.12 Z" fill="#000000" fill-rule="nonzero" node-id="108" stroke="none" target-height="347.12" target-width="478.51" target-x="396.49" target-y="846"></path></clipPath><clipPath id="b" node-id="7"><path d="M 481.00 1198.54 C 481.00 1198.54 500.00 1149.77 502.14 1101.54 L 763.77 1098.73 C 780.91 1098.56 797.36 1105.46 809.25 1117.81 C 821.13 1130.17 827.39 1146.88 826.55 1164.00 C 826.10 1173.14 825.45 1182.91 824.55 1193.08 L 824.55 1217.00 L 473.92 1217.00 Z" fill="#000000" fill-rule="nonzero" node-id="112" stroke="none" target-height="118.43994" target-width="353.47" target-x="473.92" target-y="1098.56"></path></clipPath><clipPath id="c" node-id="9"><path d="M 746.61 616.25 C 746.61 683.17 697.83 737.42 637.66 737.42 C 577.49 737.42 528.71 683.17 528.71 616.25 C 528.71 549.33 577.49 495.08 637.66 495.08 C 697.83 495.08 746.61 549.33 746.61 616.25 Z" fill="#000000" fill-rule="nonzero" node-id="116" stroke="none" target-height="242.34" target-width="217.89996" target-x="528.71" target-y="495.08"></path></clipPath><clipPath id="d" node-id="11"><path d="M 967.76 616.25 C 967.76 679.84 930.60 731.39 884.76 731.39 C 838.92 731.39 801.76 679.84 801.76 616.25 C 801.76 552.66 838.92 501.11 884.76 501.11 C 930.60 501.11 967.76 552.66 967.76 616.25 Z" fill="#000000" fill-rule="nonzero" node-id="120" stroke="none" target-height="230.28003" target-width="166" target-x="801.76" target-y="501.11"></path></clipPath></defs><path d="M -4.05 -6.12 L 1207.69 -6.12 L 1207.69 1205.62 L -4.05 1205.62 Z" fill="#0dac67" fill-rule="nonzero" node-id="124" stroke="none" target-height="1211.74" target-width="1211.74" target-x="-4.05" target-y="-6.12"></path><path d="M 396.49 1196.91 C 395.46 1196.91 394.47 1196.49 393.76 1195.74 C 393.05 1194.99 392.67 1193.99 392.71 1192.96 C 392.85 1189.78 396.23 1114.58 413.39 1072.71 C 418.20 1061.16 426.29 1051.27 436.66 1044.27 C 469.08 1022.06 509.04 1006.35 555.47 997.58 L 555.47 846.00 C 555.47 843.91 557.17 842.21 559.26 842.21 L 712.15 842.21 C 714.24 842.22 715.93 843.91 715.93 846.00 L 715.93 997.58 C 762.40 1006.36 802.37 1022.06 834.78 1044.26 C 845.15 1051.27 853.24 1061.16 858.06 1072.71 C 875.22 1114.58 878.60 1189.78 878.74 1192.96 C 878.80 1194.00 878.42 1195.02 877.71 1195.78 C 876.99 1196.53 875.99 1196.96 874.95 1196.96 Z" fill="#fce4d6" fill-rule="nonzero" node-id="126" stroke="none" target-height="354.74994" target-width="486.12997" target-x="392.67" target-y="842.21"></path><path d="M 712.15 846.00 L 712.15 1000.70 C 751.81 1007.89 794.91 1021.52 832.64 1047.37 C 842.39 1053.97 850.01 1063.26 854.56 1074.12 C 871.66 1115.86 874.95 1193.12 874.95 1193.12 L 396.49 1193.12 C 396.49 1193.12 399.78 1115.88 416.89 1074.12 C 421.44 1063.26 429.05 1053.97 438.80 1047.37 C 476.53 1021.52 519.60 1007.89 559.26 1000.70 L 559.26 846.00 L 712.15 846.00 M 712.15 838.43 L 559.26 838.43 C 555.08 838.43 551.69 841.82 551.69 846.00 L 551.69 994.45 C 506.05 1003.45 466.69 1019.13 434.52 1041.14 C 423.55 1048.57 414.99 1059.04 409.89 1071.27 C 392.48 1113.75 389.07 1189.59 388.89 1192.80 C 388.80 1194.86 389.56 1196.87 390.99 1198.36 C 392.41 1199.85 394.39 1200.69 396.45 1200.69 L 875.00 1200.69 C 877.06 1200.69 879.04 1199.85 880.47 1198.36 C 881.90 1196.87 882.66 1194.86 882.57 1192.80 C 882.43 1189.59 879.02 1113.80 861.57 1071.27 C 856.47 1059.04 847.91 1048.57 836.94 1041.15 C 804.81 1019.15 765.40 1003.44 719.73 994.45 L 719.73 846.00 C 719.73 841.82 716.34 838.43 712.16 838.43 Z" fill="#231815" fill-rule="nonzero" node-id="128" stroke="none" target-height="362.25995" target-width="493.86" target-x="388.8" target-y="838.43"></path><path d="M 712.15 852.75 L 712.15 963.12 C 597.63 935.22 559.26 873.37 559.26 873.37 L 559.26 830.50 L 657.54 844.80 Z" fill="#e6ae8b" fill-rule="nonzero" node-id="130" stroke="none" target-height="132.62" target-width="152.89001" target-x="559.26" target-y="830.5"></path><path d="M 718.05 906.90 C 698.73 906.79 679.43 905.30 660.32 902.44 C 528.73 883.44 437.26 783.57 415.63 635.28 C 412.49 613.71 410.55 594.49 409.70 576.52 C 405.77 499.07 421.83 441.71 458.80 401.18 C 479.06 378.97 506.13 361.45 539.27 349.11 C 574.75 335.90 618.47 328.11 669.27 326.04 C 676.42 325.75 683.48 325.60 690.27 325.60 C 746.50 325.60 790.05 335.53 823.39 355.97 C 853.86 374.64 875.77 402.17 890.39 440.14 C 909.52 489.79 914.78 552.68 916.79 631.84 C 919.47 738.84 899.68 812.52 856.30 857.00 C 839.68 873.91 819.39 886.78 797.00 894.61 C 774.21 902.76 747.65 906.90 718.05 906.90 Z" fill="#fce4d6" fill-rule="nonzero" node-id="132" stroke="none" target-height="581.30005" target-width="513.69995" target-x="405.77" target-y="325.6"></path><path d="M 690.20 329.38 C 804.75 329.38 859.84 371.51 886.79 441.50 C 906.32 492.18 911.05 557.50 912.94 631.93 C 917.56 816.71 854.09 903.11 718.05 903.11 C 698.91 903.00 679.79 901.53 660.86 898.70 C 530.56 879.89 440.76 781.38 419.38 634.70 C 416.50 614.95 414.38 595.38 413.47 576.31 C 406.93 447.11 453.06 338.73 669.38 329.79 C 676.52 329.50 683.46 329.35 690.20 329.35 M 690.20 321.79 L 690.20 321.79 C 683.36 321.79 676.20 321.94 669.06 322.23 C 617.90 324.34 573.79 332.18 537.94 345.53 C 504.23 358.09 476.66 375.94 455.94 398.60 C 435.85 420.60 421.58 448.01 413.55 479.95 C 406.50 507.95 403.98 539.65 405.86 576.69 C 406.72 594.76 408.67 614.10 411.86 635.79 C 417.24 672.74 427.00 707.21 440.86 738.25 C 454.59 769.02 472.35 796.43 493.65 819.73 C 514.80 842.93 539.84 862.26 567.65 876.82 C 596.47 891.75 627.62 901.68 659.77 906.16 C 679.06 909.04 698.53 910.54 718.04 910.65 C 748.04 910.65 775.04 906.44 798.23 898.14 C 821.15 890.11 841.91 876.93 858.93 859.61 C 881.00 836.99 897.33 806.25 907.47 768.25 C 917.47 730.87 921.83 684.94 920.47 631.71 C 918.47 552.16 913.14 488.90 893.81 438.71 C 878.88 399.94 856.46 371.80 825.26 352.71 C 791.31 331.89 747.12 321.78 690.18 321.78 Z" fill="#231815" fill-rule="nonzero" node-id="134" stroke="none" target-height="588.87" target-width="517.85" target-x="403.98" target-y="321.78"></path><path d="M 646.88 665.76 C 627.35 665.76 611.46 649.36 611.46 629.21 C 611.46 609.06 627.35 592.67 646.88 592.67 C 666.41 592.67 682.30 609.06 682.30 629.21 C 682.30 649.36 666.41 665.76 646.88 665.76 Z" fill="#ffffff" fill-rule="nonzero" node-id="136" stroke="none" target-height="73.09003" target-width="70.839966" target-x="611.46" target-y="592.67"></path><path d="M 646.88 594.56 C 665.40 594.56 680.41 610.07 680.41 629.21 C 680.41 648.35 665.41 663.87 646.88 663.87 C 628.35 663.87 613.35 648.35 613.35 629.21 C 613.35 610.07 628.35 594.56 646.88 594.56 M 646.88 590.77 C 626.31 590.77 609.57 608.02 609.57 629.21 C 609.57 650.40 626.31 667.65 646.88 667.65 C 667.45 667.65 684.20 650.41 684.20 629.21 C 684.20 608.01 667.46 590.77 646.88 590.77 Z" fill="#231815" fill-rule="nonzero" node-id="138" stroke="none" target-height="76.880005" target-width="74.630005" target-x="609.57" target-y="590.77"></path><path d="M 859.71 665.76 C 843.71 665.76 830.71 649.36 830.71 629.21 C 830.71 609.06 843.71 592.67 859.71 592.67 C 875.71 592.67 888.71 609.06 888.71 629.21 C 888.71 649.36 875.68 665.76 859.71 665.76 Z" fill="#ffffff" fill-rule="nonzero" node-id="140" stroke="none" target-height="73.09003" target-width="58" target-x="830.71" target-y="592.67"></path><path d="M 859.71 594.56 C 874.71 594.56 886.79 610.07 886.79 629.21 C 886.79 648.35 874.67 663.87 859.71 663.87 C 844.75 663.87 832.63 648.35 832.63 629.21 C 832.63 610.07 844.76 594.56 859.71 594.56 M 859.71 590.77 C 842.71 590.77 828.85 608.02 828.85 629.21 C 828.85 650.40 842.69 667.65 859.71 667.65 C 876.73 667.65 890.57 650.41 890.57 629.21 C 890.57 608.01 876.73 590.77 859.71 590.77 Z" fill="#231815" fill-rule="nonzero" node-id="142" stroke="none" target-height="76.880005" target-width="61.72003" target-x="828.85" target-y="590.77"></path><path d="M 428.49 775.00 C 400.31 775.00 372.55 750.74 354.24 710.12 C 336.57 670.93 339.82 625.12 361.95 601.12 C 374.52 587.52 390.95 580.03 408.31 580.03 C 434.16 580.03 464.02 598.16 472.43 638.67 C 479.26 671.58 481.33 708.98 477.57 731.75 C 475.93 741.69 468.03 762.56 449.83 770.40 C 443.11 773.38 435.84 774.94 428.49 775.00 Z" fill="#fce4d6" fill-rule="nonzero" node-id="144" stroke="none" target-height="194.96997" target-width="144.75998" target-x="336.57" target-y="580.03"></path><path d="M 408.31 583.88 C 435.03 583.88 461.17 603.13 468.72 639.50 C 475.50 672.14 477.47 709.19 473.84 731.20 C 472.16 741.38 464.23 760.13 448.34 766.99 C 442.08 769.75 435.33 771.19 428.49 771.23 C 400.29 771.23 374.49 745.78 357.69 708.58 C 340.85 671.23 343.42 626.79 364.69 603.75 C 377.06 590.36 392.76 583.88 408.27 583.88 M 408.27 576.31 C 389.87 576.31 372.42 584.23 359.13 598.61 C 347.70 610.97 340.66 629.33 339.31 650.31 C 338.15 671.39 342.07 692.45 350.75 711.70 C 359.63 731.41 371.02 747.92 383.66 759.45 C 397.55 772.11 413.04 778.80 428.45 778.80 C 436.32 778.76 444.09 777.10 451.29 773.94 C 470.99 765.44 479.51 743.07 481.29 732.43 C 485.11 709.24 483.03 671.28 476.11 637.96 C 472.21 619.14 463.39 603.36 450.63 592.32 C 438.89 582.08 423.87 576.40 408.29 576.32 Z" fill="#231815" fill-rule="nonzero" node-id="146" stroke="none" target-height="202.48999" target-width="146.95999" target-x="338.15" target-y="576.31"></path><path d="M 465.51 608.54 L 464.73 609.05 C 464.98 609.35 465.17 609.69 465.31 610.05 C 465.63 611.00 465.56 612.04 465.11 612.93 C 464.67 613.83 463.88 614.51 462.93 614.83 C 461.23 615.39 459.38 614.66 458.52 613.09 L 457.65 613.66 L 469.24 720.66 L 475.03 721.37 C 475.15 720.00 476.00 718.81 477.26 718.26 C 478.51 717.71 479.97 717.89 481.06 718.73 C 482.14 719.56 482.68 720.93 482.47 722.28 L 482.83 722.33 C 506.52 657.11 465.51 608.54 465.51 608.54 Z" fill="#fce4d6" fill-rule="nonzero" node-id="148" stroke="none" target-height="113.79004" target-width="48.869995" target-x="457.65" target-y="608.54"></path><path d="M 371.00 631.57 C 371.06 632.77 371.95 633.77 373.14 633.97 C 374.33 634.17 375.50 633.52 375.95 632.40 C 378.42 625.66 383.72 614.88 395.21 616.25 C 414.54 618.56 392.29 650.44 388.21 687.42 C 382.55 738.91 436.87 752.10 450.45 722.36 C 466.66 686.88 423.45 680.00 427.81 665.45 C 440.51 622.60 416.01 604.02 403.21 603.29 C 388.73 602.47 370.53 614.24 371.00 631.57 Z" fill="#e6ae8b" fill-rule="nonzero" node-id="150" stroke="none" target-height="149.63" target-width="96.130005" target-x="370.53" target-y="602.47"></path><path d="M 773.67 830.14 C 761.37 830.14 712.44 822.63 697.49 815.04 C 685.49 808.97 680.02 792.68 681.58 786.17 C 682.29 783.17 684.36 782.97 684.97 782.97 C 685.92 783.01 686.83 783.36 687.56 783.97 C 693.45 788.34 737.12 807.09 758.95 813.47 C 770.11 816.72 781.67 818.40 793.29 818.47 C 795.58 818.47 796.89 818.39 796.90 818.38 L 798.10 818.30 L 798.69 819.35 C 799.56 820.70 799.66 822.42 798.94 823.86 C 797.07 827.46 790.39 828.43 781.16 829.41 C 779.29 829.61 777.52 829.79 776.10 830.01 C 775.29 830.11 774.48 830.16 773.67 830.15 Z" fill="#ffffff" fill-rule="nonzero" node-id="152" stroke="none" target-height="47.190002" target-width="119.63995" target-x="680.02" target-y="782.97"></path><path d="M 685.00 784.86 C 685.54 784.90 686.05 785.11 686.46 785.46 C 692.90 790.23 737.23 809.06 758.46 815.26 C 769.80 818.55 781.53 820.27 793.34 820.35 C 795.73 820.35 797.07 820.26 797.07 820.26 C 800.65 826.70 783.72 826.94 775.86 828.13 C 775.15 828.22 774.43 828.26 773.71 828.25 C 760.98 828.25 712.85 820.69 698.39 813.35 C 684.24 806.16 680.62 784.86 685.01 784.86 M 685.01 781.07 C 683.01 781.07 680.60 782.30 679.78 785.73 C 678.14 792.59 683.44 810.00 696.68 816.73 C 712.16 824.60 760.94 832.04 773.68 832.04 C 774.59 832.05 775.50 832.00 776.40 831.88 C 777.78 831.67 779.52 831.49 781.40 831.29 C 791.54 830.21 798.35 829.17 800.66 824.73 C 801.67 822.72 801.57 820.34 800.38 818.43 L 799.21 816.33 L 796.81 816.50 C 796.81 816.50 795.54 816.58 793.34 816.58 C 781.89 816.49 770.51 814.81 759.52 811.58 C 737.82 805.25 694.52 786.68 688.72 782.38 C 687.66 781.54 686.36 781.06 685.01 781.03 Z" fill="#231815" fill-rule="nonzero" node-id="154" stroke="none" target-height="51.01996" target-width="123.52997" target-x="678.14" target-y="781.03"></path><path d="M 691.41 796.72 C 693.01 798.64 695.21 800.25 697.48 800.24 C 700.14 800.15 702.78 800.69 705.20 801.79 C 707.73 802.77 709.94 804.43 711.58 806.58 C 715.44 809.38 720.29 810.86 724.71 812.68 C 729.41 814.47 734.16 816.16 738.95 817.68 C 741.35 818.48 743.79 819.15 746.27 819.68 C 741.15 819.85 736.08 818.68 731.14 817.42 C 724.33 815.55 717.51 813.42 711.37 809.81 C 710.39 809.26 709.57 808.47 708.97 807.52 C 707.68 805.96 706.07 804.70 704.25 803.81 C 702.13 802.62 699.78 801.88 697.36 801.64 C 694.61 801.22 692.57 799.09 691.36 796.74 Z" fill="#231815" fill-rule="nonzero" node-id="156" stroke="none" target-height="23.130005" target-width="54.910034" target-x="691.36" target-y="796.72"></path><path d="M 627.47 883.86 C 625.40 883.86 623.41 883.01 621.99 881.51 C 620.56 880.01 619.81 877.99 619.91 875.92 C 620.00 873.91 620.90 872.03 622.39 870.69 L 695.87 804.16 C 697.25 802.88 699.06 802.17 700.94 802.16 C 703.01 802.15 705.00 803.00 706.43 804.50 C 707.86 806.00 708.61 808.03 708.51 810.10 C 708.42 812.11 707.52 813.99 706.03 815.33 L 632.55 881.87 C 631.38 882.93 629.90 883.60 628.33 883.78 C 628.04 883.82 627.76 883.85 627.47 883.86 Z" fill="#ef9435" fill-rule="nonzero" node-id="158" stroke="none" target-height="81.70996" target-width="88.79999" target-x="619.81" target-y="802.15"></path><path d="M 700.94 804.09 C 703.29 804.09 705.39 805.53 706.23 807.72 C 707.08 809.91 706.49 812.39 704.76 813.97 L 631.28 880.50 C 630.40 881.30 629.29 881.80 628.11 881.94 C 627.90 881.94 627.68 881.94 627.47 881.94 C 625.12 881.94 623.01 880.50 622.17 878.31 C 621.32 876.12 621.92 873.63 623.66 872.06 L 697.14 805.53 C 698.18 804.58 699.53 804.06 700.94 804.06 M 700.94 800.27 L 700.94 800.27 C 698.60 800.28 696.34 801.15 694.60 802.72 L 621.12 869.25 C 619.26 870.93 618.14 873.29 618.02 875.80 C 617.89 878.31 618.77 880.76 620.46 882.62 C 622.14 884.48 624.50 885.60 627.01 885.72 C 629.51 885.84 631.96 884.96 633.82 883.27 L 707.30 816.75 C 710.20 814.12 711.18 809.98 709.77 806.33 C 708.36 802.68 704.85 800.27 700.94 800.27 Z" fill="#231815" fill-rule="nonzero" node-id="160" stroke="none" target-height="85.57001" target-width="93.28998" target-x="617.89" target-y="800.27"></path><path d="M 553.92 973.23 L 717.48 973.23 L 717.48 999.66 L 553.92 999.66 Z" fill="#231815" fill-rule="nonzero" node-id="162" stroke="none" target-height="26.429993" target-width="163.56" target-x="553.92" target-y="973.23"></path><path d="M 714.84 965.82 C 714.84 965.82 598.59 967.15 554.74 950.63" fill="none" node-id="164" stroke="#231815" stroke-linecap="butt" stroke-width="7.57" target-height="16.52002" target-width="160.10004" target-x="554.74" target-y="950.63"></path><path d="M 714.84 958.24 C 714.84 958.24 596.75 953.51 554.74 919.45" fill="none" node-id="166" stroke="#231815" stroke-linecap="butt" stroke-width="7.57" target-height="38.789978" target-width="160.10004" target-x="554.74" target-y="919.45"></path><path d="M 597.79 970.43 C 593.93 970.43 581.01 969.68 576.72 960.05 C 575.11 956.44 575.85 954.05 576.72 952.65 C 578.10 950.52 580.83 949.30 584.22 949.30 C 586.46 949.30 588.68 949.83 590.67 950.86 C 591.03 949.41 591.64 948.03 592.46 946.78 C 594.53 943.59 597.56 941.61 600.37 941.61 C 601.96 941.61 604.90 942.26 606.84 946.61 C 611.78 957.69 600.37 969.37 599.84 969.86 C 599.51 970.19 599.06 970.39 598.59 970.41 C 598.59 970.41 598.34 970.43 597.79 970.43 Z" fill="#ca0915" fill-rule="nonzero" node-id="168" stroke="none" target-height="28.820007" target-width="36.670044" target-x="575.11" target-y="941.61"></path><path d="M 600.40 943.50 C 602.18 943.50 603.90 944.60 605.14 947.38 C 609.61 957.38 598.57 968.52 598.57 968.52 C 598.57 968.52 598.28 968.52 597.79 968.52 C 594.58 968.52 582.31 967.94 578.45 959.26 C 575.95 953.65 579.84 951.17 584.25 951.17 C 587.73 951.17 591.53 952.72 592.77 955.50 C 590.77 950.94 595.77 943.50 600.40 943.50 M 600.40 939.72 L 600.40 939.72 C 596.91 939.72 593.40 941.97 590.91 945.72 C 590.38 946.53 589.92 947.39 589.55 948.28 C 587.85 947.68 586.05 947.38 584.25 947.37 C 580.25 947.37 576.90 948.91 575.16 951.59 C 574.00 953.37 573.04 956.41 574.99 960.79 C 579.75 971.46 593.64 972.29 597.79 972.29 C 598.40 972.29 598.79 972.29 598.79 972.29 C 599.73 972.24 600.62 971.85 601.29 971.18 C 601.82 970.65 614.10 958.08 608.64 945.83 C 606.26 940.50 602.49 939.71 600.45 939.71 Z" fill="#231815" fill-rule="nonzero" node-id="170" stroke="none" target-height="32.579956" target-width="41.059998" target-x="573.04" target-y="939.71"></path><path d="M 580.23 956.43 C 580.23 957.68 580.94 958.70 580.11 958.71 C 579.28 958.72 578.60 957.71 578.59 956.44 C 578.58 955.17 579.24 954.16 580.07 954.15 C 580.90 954.14 580.22 955.17 580.23 956.43 Z" fill="#ffffff" fill-rule="nonzero" node-id="172" stroke="none" target-height="4.579956" target-width="2.3599854" target-x="578.58" target-y="954.14"></path><path d="M 583.07 953.00 C 583.14 953.37 582.71 953.33 582.20 953.42 C 581.69 953.51 581.30 953.71 581.20 953.33 C 581.10 952.95 581.49 952.58 582.00 952.49 C 582.51 952.40 583.00 952.64 583.07 953.00 Z" fill="#ffffff" fill-rule="nonzero" node-id="174" stroke="none" target-height="1.3099976" target-width="2.040039" target-x="581.1" target-y="952.4"></path><path d="M 628.40 956.71 C 627.96 956.71 627.54 956.56 627.20 956.28 C 626.67 955.84 614.13 945.38 617.92 933.85 C 619.54 928.93 622.73 928.19 624.49 928.19 C 627.33 928.19 630.49 930.09 632.68 933.19 C 633.43 934.20 634.02 935.32 634.45 936.50 C 636.70 935.02 639.33 934.23 642.02 934.21 C 645.02 934.21 647.34 935.21 648.68 937.09 C 649.61 938.36 650.46 940.63 649.28 944.21 C 645.49 955.73 629.19 956.71 628.50 956.75 Z" fill="#009fe8" fill-rule="nonzero" node-id="176" stroke="none" target-height="28.559998" target-width="36.330017" target-x="614.13" target-y="928.19"></path><path d="M 624.49 930.09 C 629.01 930.09 634.36 936.70 632.85 941.29 C 633.91 938.08 638.26 936.06 642.02 936.06 C 645.94 936.06 649.23 938.25 647.48 943.57 C 644.05 954.00 628.40 954.82 628.40 954.82 C 628.40 954.82 616.29 944.82 619.72 934.45 C 620.72 931.31 622.54 930.09 624.49 930.09 M 624.49 926.30 C 622.66 926.30 618.19 926.98 616.12 933.30 C 611.93 946.04 625.43 957.30 626.00 957.78 C 626.68 958.34 627.52 958.64 628.40 958.64 L 628.60 958.64 C 629.35 958.64 646.89 957.55 651.08 944.81 C 652.50 940.47 651.40 937.62 650.22 935.99 C 648.51 933.63 645.60 932.32 642.02 932.32 C 639.70 932.33 637.42 932.85 635.32 933.83 C 634.99 933.23 634.62 932.65 634.22 932.09 C 631.65 928.55 627.93 926.35 624.49 926.35 Z" fill="#231815" fill-rule="nonzero" node-id="178" stroke="none" target-height="32.340027" target-width="40.570007" target-x="611.93" target-y="926.3"></path><path d="M 623.00 933.54 C 622.17 934.47 622.00 935.69 621.38 935.14 C 620.76 934.59 620.94 933.38 621.78 932.44 C 622.62 931.50 623.78 931.19 624.41 931.74 C 625.04 932.29 623.79 932.60 623.00 933.54 Z" fill="#ffffff" fill-rule="nonzero" node-id="180" stroke="none" target-height="4.5" target-width="4.2799683" target-x="620.76" target-y="931.19"></path><path d="M 627.36 932.92 C 627.16 933.24 626.86 932.92 626.42 932.64 C 625.98 932.36 625.57 932.25 625.77 931.92 C 626.10 931.66 626.56 931.64 626.91 931.86 C 627.27 932.09 627.45 932.51 627.36 932.92 Z" fill="#ffffff" fill-rule="nonzero" node-id="182" stroke="none" target-height="1.5999756" target-width="1.8800049" target-x="625.57" target-y="931.64"></path><g node-id="310"><g clip-path="url(#a)" group-id="1" id="sillyvg_g_0" node-id="184"><path d="M 483.87 1203.88 C 482.77 1203.86 481.74 1203.37 481.03 1202.53 C 480.32 1201.69 480.01 1200.58 480.18 1199.50 C 497.81 1088.50 462.81 1013.50 462.46 1012.76 C 461.98 1011.76 461.97 1010.60 462.42 1009.59 C 462.87 1008.58 463.74 1007.82 464.80 1007.50 L 508.00 994.76 C 508.35 994.65 508.71 994.60 509.07 994.60 C 510.13 994.60 511.14 995.05 511.86 995.83 C 550.52 1037.99 594.86 1059.36 643.74 1059.36 L 643.74 1059.36 C 721.10 1059.36 783.63 1005.18 784.25 1004.64 C 784.94 1004.03 785.83 1003.69 786.75 1003.69 C 787.23 1003.69 787.71 1003.78 788.16 1003.97 L 818.22 1016.06 C 819.18 1016.44 819.94 1017.20 820.32 1018.16 C 843.32 1075.68 828.87 1199.55 828.24 1204.79 C 828.01 1206.69 826.40 1208.12 824.48 1208.12 Z" fill="#ffffff" fill-rule="nonzero" group-id="1" node-id="186" stroke="none" target-height="213.52002" target-width="381.35" target-x="461.97" target-y="994.6"></path><path d="M 509.08 998.39 C 553.88 1047.24 601.16 1063.15 643.77 1063.15 C 723.46 1063.15 786.77 1007.48 786.77 1007.48 L 816.83 1019.57 C 839.77 1076.85 824.50 1204.34 824.50 1204.34 L 483.90 1200.09 C 501.95 1086.50 465.85 1011.09 465.85 1011.09 L 509.06 998.35 M 509.06 990.78 C 508.34 990.78 507.61 990.88 506.92 991.09 L 463.71 1003.83 C 461.58 1004.46 459.84 1005.99 458.94 1008.01 C 458.04 1010.04 458.07 1012.36 459.03 1014.36 C 459.11 1014.53 467.87 1033.14 474.35 1065.07 C 480.35 1094.49 485.53 1141.58 476.42 1198.87 C 476.08 1201.04 476.70 1203.26 478.11 1204.93 C 479.53 1206.61 481.61 1207.59 483.81 1207.62 L 824.41 1211.87 L 824.50 1211.87 C 828.33 1211.87 831.56 1209.00 832.02 1205.20 C 832.65 1199.92 847.25 1075.12 823.86 1016.72 C 823.09 1014.80 821.57 1013.28 819.65 1012.51 L 789.65 1000.42 C 787.00 999.35 783.97 999.87 781.82 1001.75 C 781.67 1001.89 766.09 1015.45 741.25 1028.75 C 718.56 1040.95 683.25 1055.49 643.80 1055.49 C 596.04 1055.49 552.60 1034.49 514.68 993.18 C 513.25 991.62 511.23 990.73 509.11 990.73 Z" fill="#231815" fill-rule="nonzero" group-id="1" node-id="188" stroke="none" target-height="221.14001" target-width="389.21" target-x="458.04" target-y="990.73"></path><path d="M 518.50 1108.93 C 518.00 1108.93 517.52 1108.73 517.16 1108.38 C 516.81 1108.02 516.61 1107.54 516.61 1107.04 C 516.53 1064.50 481.78 1010.59 481.43 1010.04 C 481.16 1009.61 481.07 1009.09 481.18 1008.59 C 481.30 1008.09 481.60 1007.66 482.04 1007.39 L 501.73 995.39 C 502.03 995.21 502.38 995.12 502.73 995.12 C 503.23 995.12 503.71 995.31 504.06 995.66 C 529.47 1020.84 540.06 1049.80 544.41 1069.66 C 549.16 1091.18 547.92 1106.55 547.86 1107.19 C 547.78 1108.17 546.96 1108.92 545.98 1108.92 Z" fill="#7dccf3" fill-rule="nonzero" group-id="1" node-id="190" stroke="none" target-height="113.81006" target-width="68.089966" target-x="481.07" target-y="995.12"></path><path d="M 502.71 997.00 C 551.26 1045.11 545.96 1107.00 545.96 1107.00 L 518.50 1107.00 C 518.42 1063.40 483.02 1009.00 483.02 1009.00 L 502.71 997.00 M 502.71 993.21 C 502.00 993.21 501.31 993.40 500.71 993.77 L 481.02 1005.77 C 480.15 1006.30 479.53 1007.16 479.30 1008.16 C 479.07 1009.16 479.26 1010.20 479.82 1011.06 C 480.17 1011.60 514.61 1065.06 514.68 1107.06 C 514.69 1109.15 516.38 1110.83 518.47 1110.83 L 546.00 1110.83 C 547.96 1110.83 549.60 1109.33 549.77 1107.37 C 549.77 1106.72 551.09 1091.07 546.28 1069.27 C 541.84 1049.17 531.15 1019.85 505.42 994.35 C 504.71 993.65 503.75 993.25 502.75 993.25 Z" fill="#231815" fill-rule="nonzero" group-id="1" node-id="192" stroke="none" target-height="117.619934" target-width="72.19" target-x="479.07" target-y="993.21"></path><path d="M 792.00 1121.85 C 791.57 1121.85 791.16 1121.71 790.82 1121.44 L 766.72 1102.18 C 766.06 1101.65 765.83 1100.75 766.16 1099.97 C 780.02 1066.86 784.94 1013.97 784.98 1013.44 C 785.07 1012.47 785.89 1011.72 786.87 1011.72 C 786.99 1011.71 787.10 1011.71 787.22 1011.72 L 814.68 1016.86 C 815.57 1017.03 816.21 1017.80 816.22 1018.70 C 816.95 1075.70 793.91 1120.36 793.68 1120.81 C 793.42 1121.32 792.95 1121.69 792.39 1121.81 C 792.26 1121.84 792.13 1121.85 792.00 1121.85 Z" fill="#7dccf3" fill-rule="nonzero" group-id="1" node-id="194" stroke="none" target-height="110.13995" target-width="51.119995" target-x="765.83" target-y="1011.71"></path><path d="M 786.85 1013.61 L 814.31 1018.76 C 815.00 1076.00 792.00 1120.00 792.00 1120.00 L 767.90 1100.74 C 782.05 1066.97 786.90 1013.65 786.90 1013.65 M 786.90 1009.87 C 786.08 1009.87 785.28 1010.13 784.62 1010.63 C 783.77 1011.28 783.23 1012.25 783.13 1013.31 C 783.08 1013.84 778.19 1066.45 764.44 1099.31 C 763.79 1100.87 764.25 1102.67 765.57 1103.73 L 789.67 1122.98 C 790.34 1123.52 791.17 1123.81 792.03 1123.81 C 792.29 1123.81 792.55 1123.79 792.81 1123.73 C 793.93 1123.49 794.88 1122.75 795.39 1121.73 C 795.63 1121.27 801.39 1110.22 807.08 1091.96 C 812.34 1075.14 818.53 1048.78 818.15 1018.73 C 818.15 1016.89 816.82 1015.31 815.00 1015.00 L 787.54 1009.85 C 787.31 1009.81 787.07 1009.79 786.84 1009.79 Z" fill="#231815" fill-rule="nonzero" group-id="1" node-id="196" stroke="none" target-height="114.02008" target-width="54.74005" target-x="763.79" target-y="1009.79"></path><path d="M 473.92 1218.86 C 473.30 1218.86 472.71 1218.56 472.36 1218.04 C 472.00 1217.53 471.93 1216.87 472.15 1216.29 L 479.20 1197.87 C 479.34 1197.52 479.58 1197.21 479.89 1196.99 C 480.20 1196.77 511.32 1173.99 510.01 1101.46 C 510.00 1100.96 510.19 1100.47 510.54 1100.11 C 510.89 1099.75 511.37 1099.54 511.88 1099.53 L 763.72 1096.83 L 764.43 1096.83 C 781.98 1096.83 798.77 1104.03 810.86 1116.75 C 822.96 1129.47 829.31 1146.60 828.43 1164.13 C 827.95 1173.94 827.27 1183.73 826.43 1193.21 L 826.43 1217.00 C 826.42 1218.05 825.58 1218.89 824.53 1218.89 Z" fill="#7dccf3" fill-rule="nonzero" group-id="1" node-id="198" stroke="none" target-height="122.06006" target-width="357.38" target-x="471.93" target-y="1096.83"></path><path d="M 764.43 1098.72 C 781.46 1098.72 797.74 1105.71 809.48 1118.05 C 821.22 1130.38 827.39 1146.99 826.55 1164.00 C 826.10 1173.14 825.45 1182.91 824.55 1193.08 L 824.55 1217.00 L 473.92 1217.00 L 480.97 1198.57 C 480.97 1198.57 513.25 1176.07 511.90 1101.46 L 763.74 1098.75 L 764.43 1098.75 M 764.43 1094.97 L 764.43 1094.97 L 763.70 1094.97 L 511.86 1097.67 C 510.85 1097.68 509.89 1098.10 509.19 1098.82 C 508.48 1099.54 508.10 1100.51 508.12 1101.52 C 508.79 1138.87 500.75 1162.46 493.89 1175.67 C 486.50 1189.88 478.89 1195.42 478.79 1195.48 C 478.18 1195.91 477.71 1196.52 477.44 1197.22 L 470.39 1215.65 C 469.94 1216.81 470.09 1218.12 470.80 1219.15 C 471.51 1220.17 472.67 1220.78 473.92 1220.78 L 824.52 1220.78 C 826.61 1220.78 828.30 1219.09 828.31 1217.00 L 828.31 1193.32 C 829.17 1183.84 829.85 1174.06 830.31 1164.25 C 831.21 1146.20 824.67 1128.58 812.21 1115.48 C 799.76 1102.39 782.48 1094.98 764.41 1094.97 Z" fill="#231815" fill-rule="nonzero" group-id="1" node-id="200" stroke="none" target-height="125.81006" target-width="361.27002" target-x="469.94" target-y="1094.97"></path><g clip-path="url(#b)" group-id="1,4" id="sillyvg_g_1" node-id="202"><path d="M 827.00 1170.92 C 826.16 1170.84 825.48 1170.22 825.32 1169.40 C 821.40 1149.52 800.09 1146.55 787.74 1146.55 C 785.36 1146.54 782.98 1146.66 780.61 1146.92 L 780.36 1146.92 C 779.93 1146.92 779.52 1146.78 779.19 1146.51 C 778.79 1146.19 778.53 1145.72 778.48 1145.21 C 774.23 1102.66 757.96 1100.51 754.75 1100.51 C 754.46 1100.49 754.18 1100.49 753.89 1100.51 C 753.79 1100.52 753.68 1100.52 753.58 1100.51 C 752.78 1100.51 752.06 1100.01 751.78 1099.26 L 742.27 1072.80 C 742.07 1072.26 742.13 1071.67 742.43 1071.18 C 742.72 1070.69 743.22 1070.36 743.79 1070.28 L 758.68 1068.21 L 758.94 1068.21 C 759.19 1068.21 759.44 1068.26 759.67 1068.35 L 815.07 1091.51 C 815.46 1091.68 815.78 1091.97 815.99 1092.33 L 828.29 1114.25 C 828.38 1114.41 828.45 1114.58 828.49 1114.76 L 836.49 1150.33 C 836.57 1150.71 836.54 1151.10 836.39 1151.46 L 828.95 1169.66 C 828.66 1170.37 827.97 1170.84 827.20 1170.84 Z" fill="#0098cd" fill-rule="nonzero" group-id="1,4" node-id="204" stroke="none" target-height="102.71008" target-width="94.5" target-x="742.07" target-y="1068.21"></path><path d="M 758.93 1070.19 L 814.33 1093.35 L 826.63 1115.27 L 834.63 1150.84 L 827.17 1169.00 C 822.93 1147.51 799.81 1144.63 787.73 1144.63 C 785.26 1144.61 782.80 1144.74 780.35 1145.02 C 776.02 1101.65 759.35 1098.61 754.74 1098.61 C 754.34 1098.60 753.94 1098.63 753.55 1098.69 L 744.00 1072.26 L 758.89 1070.19 M 758.89 1066.40 C 758.72 1066.39 758.54 1066.39 758.37 1066.40 L 743.48 1068.47 C 742.36 1068.64 741.38 1069.30 740.80 1070.26 C 740.22 1071.23 740.10 1072.41 740.48 1073.47 L 750.00 1100.00 C 750.55 1101.80 752.40 1102.87 754.23 1102.45 C 754.40 1102.44 754.57 1102.44 754.74 1102.45 C 757.68 1102.45 772.51 1104.53 776.60 1145.45 C 776.79 1147.38 778.42 1148.86 780.36 1148.86 C 780.52 1148.87 780.69 1148.87 780.85 1148.86 C 783.14 1148.61 785.44 1148.49 787.74 1148.50 C 799.51 1148.50 819.81 1151.27 823.47 1169.83 C 823.80 1171.46 825.16 1172.67 826.81 1172.83 L 827.18 1172.83 C 828.71 1172.83 830.10 1171.90 830.68 1170.48 L 838.13 1152.28 C 838.42 1151.56 838.48 1150.78 838.32 1150.02 L 830.32 1114.45 C 830.24 1114.10 830.11 1113.76 829.93 1113.45 L 817.63 1091.53 C 817.22 1090.79 816.57 1090.21 815.79 1089.89 L 760.39 1066.73 C 759.93 1066.53 759.43 1066.43 758.93 1066.43 Z" fill="#231815" fill-rule="nonzero" group-id="1,4" node-id="206" stroke="none" target-height="106.43994" target-width="98.380005" target-x="740.1" target-y="1066.39"></path></g></g></g><path d="M 403.07 1160.00 C 402.60 1160.00 402.13 1159.91 401.69 1159.74 C 400.62 1159.32 375.39 1149.23 354.79 1124.64 C 335.71 1101.87 317.38 1062.01 338.37 1001.41 C 343.37 986.96 348.19 973.04 352.68 959.60 C 349.17 968.93 345.26 978.57 340.94 988.51 C 340.94 988.54 340.94 988.57 340.94 988.60 C 340.69 989.14 316.14 1042.87 336.94 1100.90 C 337.36 1102.06 337.19 1103.35 336.48 1104.36 C 335.77 1105.37 334.61 1105.97 333.38 1105.96 C 332.75 1105.96 332.13 1105.80 331.58 1105.50 C 330.58 1104.97 307.07 1092.06 286.69 1065.92 C 267.80 1041.70 248.36 1001.19 263.00 945.78 C 269.76 920.20 278.74 898.78 287.78 879.64 C 242.98 960.55 255.78 1026.59 276.36 1052.20 C 277.28 1053.34 277.45 1054.91 276.81 1056.23 C 276.17 1057.55 274.83 1058.38 273.36 1058.36 C 272.79 1058.36 272.23 1058.23 271.71 1057.98 C 269.16 1056.74 209.02 1026.98 188.71 966.05 C 176.64 929.83 181.41 890.40 202.86 848.84 C 217.62 820.27 229.86 799.12 239.66 782.13 C 276.74 717.94 279.77 712.70 259.89 580.54 C 245.65 485.90 246.04 422.21 261.14 374.04 C 269.78 346.51 283.14 324.24 302.14 305.97 C 312.48 296.06 324.06 287.53 336.58 280.59 C 319.80 288.21 304.84 299.34 292.73 313.23 C 252.01 359.57 238.22 436.11 251.73 540.72 C 251.72 540.79 251.72 540.85 251.73 540.92 C 252.85 555.71 256.17 573.92 259.73 593.17 C 269.84 648.53 282.43 717.44 250.90 755.34 C 249.72 756.76 247.69 757.13 246.09 756.20 C 244.50 755.27 243.80 753.33 244.45 751.60 C 244.61 751.17 260.30 707.94 248.77 655.33 C 246.65 645.68 242.62 632.69 237.95 617.65 C 216.00 546.94 179.33 428.69 235.83 335.00 C 295.40 236.14 361.83 188.08 438.83 188.08 C 468.42 188.08 500.04 195.37 532.78 209.74 C 534.44 210.45 535.37 212.23 535.00 214.00 L 443.93 612.16 L 452.32 759.00 C 455.87 766.08 488.99 829.50 552.42 864.45 C 554.18 865.39 554.90 867.54 554.07 869.35 C 553.24 871.17 551.14 872.02 549.28 871.31 C 548.40 870.98 527.56 863.18 501.68 847.31 C 487.94 838.99 474.93 829.52 462.80 819.00 C 466.80 823.28 471.37 827.71 476.44 832.24 C 476.82 832.59 477.14 833.00 477.36 833.47 C 491.85 864.69 509.93 922.25 468.11 957.11 C 430.73 988.25 389.34 1039.63 385.28 1090.43 C 383.35 1114.49 390.28 1135.79 405.92 1153.73 C 406.90 1154.85 407.13 1156.43 406.52 1157.78 C 405.90 1159.14 404.55 1160.00 403.07 1160.00 Z M 381.56 826.68 C 381.15 840.47 379.85 854.21 377.68 867.83 C 380.11 854.24 381.41 840.48 381.56 826.68 Z M 328.84 778.07 C 327.94 782.74 326.90 787.56 325.69 792.50 C 326.91 787.82 328.00 783.00 328.84 778.07 Z" fill="#7dccf3" fill-rule="nonzero" node-id="210" stroke="none" target-height="971.92" target-width="378.26" target-x="176.64" target-y="188.08"></path><path d="M 438.86 191.82 C 467.16 191.82 497.86 198.48 531.29 213.16 L 440.12 611.84 L 448.59 760.00 C 448.59 760.00 481.76 829.86 550.59 867.78 C 550.59 867.78 466.28 836.49 428.04 772.55 C 428.04 772.55 435.88 801.07 473.92 835.02 C 488.62 866.64 505.19 921.23 465.69 954.15 C 407.54 1002.60 347.91 1092.80 403.07 1156.15 C 403.07 1156.15 302.43 1116.64 341.94 1002.58 C 381.35 888.83 406.66 812.15 360.94 737.79 C 360.71 737.39 360.58 737.20 360.58 737.20 L 360.94 737.79 C 365.41 745.26 408.29 824.04 337.47 986.93 C 337.47 986.93 311.73 1041.83 333.37 1102.10 C 333.37 1102.10 239.07 1051.04 266.65 946.67 C 294.23 842.30 356.85 811.74 327.78 688.74 C 327.78 688.74 344.37 779.25 291.24 866.11 C 239.88 950.11 248.80 1023.94 273.40 1054.50 C 273.40 1054.50 135.45 987.67 206.27 850.50 C 277.09 713.33 289.00 748.40 263.67 579.92 C 238.34 411.44 253.25 306.89 380.00 266.08 L 379.92 266.08 C 375.92 266.08 212.66 267.76 248.05 541.16 C 252.44 598.87 289.10 703.52 248.05 752.87 C 248.05 752.87 264.45 708.87 252.53 654.47 C 240.61 600.07 171.27 449.47 239.11 336.90 C 290.00 252.38 353.55 191.82 438.86 191.82 M 438.86 184.25 L 438.86 184.25 C 360.38 184.25 292.86 232.91 232.58 333.00 C 219.09 355.39 209.97 380.81 205.49 408.54 C 201.68 432.19 201.12 458.24 203.85 485.99 C 208.85 536.44 223.58 583.99 234.36 618.72 C 239.00 633.72 243.01 646.60 245.09 656.09 C 256.36 707.51 241.09 749.82 240.92 750.24 C 239.64 753.70 241.04 757.57 244.23 759.42 C 245.28 760.03 246.47 760.37 247.69 760.42 C 244.36 766.42 240.61 772.91 236.42 780.17 C 226.58 797.17 214.34 818.39 199.54 847.05 C 177.60 889.55 172.76 930.00 185.16 967.19 C 193.79 993.12 211.21 1017.61 235.52 1038.02 C 253.79 1053.36 269.45 1061.02 270.10 1061.33 C 272.71 1062.61 275.82 1062.28 278.10 1060.49 C 279.88 1063.10 281.76 1065.67 283.74 1068.20 C 304.60 1094.95 328.79 1108.20 329.81 1108.78 C 332.57 1110.27 335.96 1109.91 338.34 1107.87 L 338.68 1107.56 C 342.42 1114.47 346.84 1120.98 351.89 1127.00 C 373.10 1152.32 399.20 1162.76 400.30 1163.19 C 403.54 1164.48 407.25 1163.37 409.25 1160.51 C 411.26 1157.66 411.07 1153.81 408.78 1151.18 C 393.85 1134.03 387.21 1113.67 389.05 1090.66 C 393.00 1041.00 435.43 989.21 470.53 960.00 C 510.53 926.71 498.53 874.26 484.74 840.88 C 489.96 844.51 495.00 847.76 499.74 850.64 C 525.92 866.64 547.10 874.59 547.99 874.92 C 551.71 876.32 555.88 874.60 557.53 870.99 C 559.19 867.37 557.77 863.10 554.28 861.19 C 520.00 842.28 495.00 815.00 480.00 795.41 C 470.94 783.66 462.91 771.15 456.00 758.02 L 447.68 612.48 L 538.61 214.84 C 539.42 211.30 537.60 207.68 534.27 206.22 C 501.04 191.64 468.92 184.22 438.80 184.22 Z" fill="#231815" fill-rule="nonzero" node-id="212" stroke="none" target-height="980.26" target-width="423.74" target-x="135.45" target-y="184.22"></path><path d="M 368.00 378.00 C 367.23 378.00 366.48 377.77 365.85 377.33 C 355.78 370.39 340.65 345.41 328.19 315.17 C 313.93 280.58 306.95 248.26 309.04 226.51 C 310.63 209.95 317.20 199.03 328.58 194.05 C 337.09 190.32 347.09 188.43 358.31 188.43 C 416.56 188.43 491.31 238.21 494.44 240.33 C 495.31 240.91 495.89 241.82 496.06 242.85 C 500.99 272.42 481.00 304.18 436.65 337.25 C 404.22 361.43 369.94 377.49 369.59 377.65 C 369.09 377.88 368.55 378.00 368.00 378.00 Z" fill="#ffffff" fill-rule="nonzero" node-id="214" stroke="none" target-height="189.57" target-width="194.03998" target-x="306.95" target-y="188.43"></path><path d="M 358.30 192.16 C 416.06 192.16 492.30 243.42 492.30 243.42 C 503.59 311.09 368.00 374.17 368.00 374.17 C 343.95 357.58 282.37 218.35 330.10 197.46 C 338.59 193.74 348.16 192.16 358.31 192.16 M 358.31 184.60 C 346.57 184.60 336.05 186.60 327.06 190.53 C 318.31 194.36 307.43 203.64 305.27 226.10 C 303.11 248.56 310.20 281.42 324.69 316.56 C 334.50 340.36 350.60 371.36 363.69 380.40 C 365.90 381.93 368.75 382.17 371.18 381.03 C 394.96 369.54 417.62 355.88 438.90 340.24 C 458.39 325.71 473.49 311.10 483.79 296.82 C 497.32 278.06 502.70 259.68 499.79 242.18 C 499.43 240.14 498.26 238.33 496.54 237.18 C 481.69 227.49 466.24 218.74 450.29 211.00 C 414.36 193.49 383.41 184.61 358.29 184.61 Z" fill="#231815" fill-rule="nonzero" node-id="216" stroke="none" target-height="197.57" target-width="221.22" target-x="282.37" target-y="184.6"></path><path d="M 383.36 368.65 C 382.98 368.65 382.61 368.53 382.29 368.32 C 367.14 357.87 334.29 288.55 337.94 250.32 C 339.15 237.68 344.12 229.32 352.70 225.60 C 359.99 222.58 367.82 221.11 375.70 221.26 C 421.32 221.26 480.01 260.36 482.49 262.02 C 482.92 262.31 483.22 262.77 483.30 263.28 C 487.11 286.18 471.49 310.88 436.85 336.70 C 420.27 348.85 402.63 359.48 384.14 368.46 C 383.90 368.58 383.63 368.65 383.36 368.65 Z" fill="#f3b3cf" fill-rule="nonzero" node-id="218" stroke="none" target-height="147.54" target-width="152.81998" target-x="334.29" target-y="221.11"></path><path d="M 375.72 223.18 C 421.29 223.18 481.45 263.61 481.45 263.61 C 490.35 317.00 383.36 366.76 383.36 366.76 C 364.36 353.67 315.81 243.84 353.46 227.36 C 360.51 224.44 368.09 223.02 375.72 223.18 M 375.72 219.39 C 367.57 219.23 359.48 220.76 351.95 223.89 C 342.68 227.94 337.34 236.78 336.05 250.16 C 334.40 267.44 339.92 293.07 351.22 320.48 C 359.44 340.48 371.91 363.48 381.22 369.88 C 381.85 370.31 382.60 370.55 383.36 370.55 C 383.91 370.55 384.46 370.43 384.96 370.19 C 403.58 361.19 421.34 350.50 438.00 338.24 C 453.20 326.91 465.00 315.55 473.00 304.46 C 483.32 290.15 487.44 276.20 485.24 262.99 C 485.07 261.96 484.48 261.05 483.61 260.47 C 471.96 252.89 459.84 246.05 447.33 240.00 C 419.33 226.33 395.20 219.40 375.72 219.40 Z" fill="#231815" fill-rule="nonzero" node-id="220" stroke="none" target-height="151.31999" target-width="174.54001" target-x="315.81" target-y="219.23"></path><path d="M 534.64 252.91 L 534.64 252.91 C 510.99 252.91 493.83 251.13 493.64 251.11 C 491.91 250.93 490.53 249.59 490.29 247.87 C 487.11 225.07 505.61 115.64 538.06 78.36 C 545.50 69.82 553.34 65.48 561.37 65.48 C 564.73 65.50 568.04 66.23 571.10 67.62 C 628.57 93.00 675.64 201.72 677.62 206.34 C 678.16 207.61 677.97 209.07 677.12 210.16 C 649.51 245.49 584.40 252.91 534.64 252.91 Z" fill="#ffffff" fill-rule="nonzero" node-id="222" stroke="none" target-height="187.43" target-width="191.04999" target-x="487.11" target-y="65.48"></path><path d="M 561.38 69.27 C 564.21 69.29 567.00 69.91 569.58 71.08 C 626.34 96.14 674.14 207.83 674.14 207.83 C 646.67 242.98 578.76 249.12 534.63 249.12 C 510.90 249.12 494.05 247.34 494.05 247.34 C 490.25 220.10 518.30 69.27 561.38 69.27 M 561.38 61.70 C 552.21 61.70 543.38 66.47 535.22 75.88 C 515.91 98.06 503.14 142.67 497.22 167.28 C 489.16 200.93 484.66 235.05 486.52 248.39 C 487.00 251.83 489.76 254.50 493.22 254.87 C 493.93 254.95 510.75 256.69 534.60 256.69 C 585.21 256.69 651.52 249.02 680.07 212.49 C 681.77 210.31 682.15 207.39 681.07 204.85 C 671.90 184.20 661.37 164.17 649.57 144.90 C 623.48 102.35 597.57 75.18 572.57 64.16 C 569.03 62.56 565.19 61.72 561.31 61.70 Z" fill="#231815" fill-rule="nonzero" node-id="224" stroke="none" target-height="194.99" target-width="197.49002" target-x="484.66" target-y="61.7"></path><path d="M 551.94 260.38 C 532.39 260.38 518.23 258.91 518.09 258.90 C 517.23 258.81 516.54 258.14 516.42 257.28 C 513.80 238.51 529.02 148.43 555.73 117.75 C 561.65 110.95 567.83 107.50 574.11 107.50 C 576.72 107.52 579.29 108.09 581.67 109.16 C 628.87 130.00 667.67 219.70 669.33 223.51 C 669.60 224.15 669.50 224.88 669.08 225.42 C 646.50 254.31 592.91 260.42 551.94 260.42 Z" fill="#f3b3cf" fill-rule="nonzero" node-id="226" stroke="none" target-height="152.92001" target-width="155.79999" target-x="513.8" target-y="107.5"></path><path d="M 574.11 109.39 C 576.46 109.41 578.78 109.92 580.91 110.90 C 627.96 131.67 667.59 224.25 667.59 224.25 C 644.81 253.39 588.52 258.49 551.94 258.49 C 532.27 258.49 518.29 257.02 518.29 257.02 C 515.14 234.43 538.40 109.39 574.11 109.39 M 574.11 105.61 C 567.26 105.61 560.59 109.27 554.30 116.51 C 538.64 134.51 528.20 171.04 523.37 191.22 C 516.86 218.41 513.06 246.92 514.54 257.54 C 514.78 259.26 516.16 260.60 517.89 260.78 C 518.47 260.84 532.29 262.27 551.94 262.27 C 576.07 262.27 597.55 260.16 615.78 255.99 C 641.48 250.11 659.91 240.22 670.57 226.59 C 671.42 225.50 671.61 224.04 671.07 222.77 C 663.48 205.77 654.79 189.27 645.07 173.39 C 623.71 138.56 602.62 116.39 582.39 107.39 C 579.77 106.21 576.93 105.59 574.06 105.57 Z" fill="#231815" fill-rule="nonzero" node-id="228" stroke="none" target-height="156.69998" target-width="158.54999" target-x="513.06" target-y="105.57"></path><path d="M 515.26 778.92 C 514.72 778.92 514.18 778.80 513.69 778.58 C 512.02 777.81 511.14 775.96 511.61 774.18 C 511.79 773.47 522.96 728.18 493.40 677.66 C 492.03 675.82 490.79 673.87 489.70 671.85 C 482.27 659.19 464.87 629.53 430.20 625.55 L 430.20 625.55 C 430.20 625.55 427.70 625.30 423.81 625.30 C 411.81 625.30 383.13 627.71 375.03 649.98 C 363.88 680.63 367.26 729.58 367.30 730.07 C 367.41 731.66 366.52 733.15 365.06 733.80 C 363.60 734.44 361.90 734.10 360.80 732.96 C 359.75 731.87 334.99 705.81 315.69 661.12 C 304.50 635.44 297.46 608.14 294.81 580.25 C 291.71 545.46 295.66 510.41 306.43 477.19 C 306.93 475.62 308.39 474.56 310.03 474.56 L 310.21 474.56 C 311.93 474.65 313.37 475.88 313.73 477.56 C 313.79 477.82 315.28 484.56 318.22 495.04 C 314.44 477.09 313.59 461.13 315.71 447.27 C 320.79 413.98 355.97 373.90 357.46 372.21 C 358.18 371.40 359.21 370.93 360.30 370.93 C 361.41 370.93 362.47 371.42 363.19 372.28 C 363.91 373.13 364.22 374.25 364.03 375.35 C 364.03 375.65 359.03 405.89 367.91 446.69 C 372.82 469.26 381.05 490.99 392.32 511.15 C 374.76 475.83 359.48 426.56 366.79 368.86 C 369.60 346.66 379.71 324.68 396.79 303.51 C 412.11 284.59 432.62 266.78 457.79 250.57 C 503.53 221.00 560.10 199.83 609.11 193.83 C 617.70 192.79 626.35 192.27 635.00 192.28 C 713.59 192.28 782.00 234.05 787.86 237.73 C 792.01 239.20 822.78 250.54 855.21 274.80 C 900.64 308.80 927.06 352.00 931.59 399.80 C 931.76 401.62 930.60 403.31 928.84 403.80 C 928.51 403.89 928.18 403.94 927.84 403.94 C 926.39 403.94 925.07 403.11 924.44 401.80 C 924.26 401.44 916.74 386.05 905.04 367.32 C 906.99 370.76 908.91 374.33 910.80 378.02 C 927.70 411.07 938.14 447.67 941.80 486.80 C 946.41 535.60 940.50 588.49 924.21 644.00 C 923.65 645.86 921.76 647.00 919.85 646.62 C 917.94 646.24 916.62 644.48 916.81 642.54 C 918.79 618.36 918.56 594.05 916.11 569.92 C 913.18 540.53 905.80 501.80 887.70 468.72 C 898.00 500.27 911.89 551.18 907.00 582.79 C 906.72 584.56 905.23 585.90 903.44 585.99 L 903.25 585.99 C 901.52 585.99 900.02 584.81 899.59 583.14 C 899.19 581.58 858.84 426.97 783.48 386.23 C 762.92 375.12 737.72 369.48 708.58 369.48 C 632.91 369.48 553.02 407.56 542.07 412.97 C 537.56 424.73 505.26 513.97 528.99 597.06 C 529.52 598.86 528.64 600.78 526.93 601.56 C 525.22 602.34 523.19 601.74 522.18 600.16 C 521.69 599.41 510.07 581.38 499.65 551.85 C 493.16 533.46 488.59 514.44 486.02 495.11 C 482.54 536.19 480.97 588.33 491.17 617.11 C 492.74 621.55 494.39 626.11 496.07 630.81 C 514.87 683.09 538.26 748.15 518.36 777.30 C 517.65 778.31 516.50 778.92 515.26 778.92 Z" fill="#7dccf3" fill-rule="nonzero" node-id="230" stroke="none" target-height="586.64996" target-width="654.69995" target-x="291.71" target-y="192.27"></path><path d="M 635.00 196.06 C 716.62 196.06 786.20 241.16 786.20 241.16 C 786.20 241.16 917.00 286.00 927.85 400.12 C 927.85 400.12 884.50 310.53 841.14 297.52 C 841.14 297.52 991.44 401.57 920.63 642.91 C 920.63 642.91 934.21 514.56 874.38 442.03 C 874.38 442.03 910.51 535.25 903.29 582.21 C 903.29 582.21 863.03 424.92 785.29 382.91 C 762.18 370.42 735.57 365.71 708.59 365.71 C 625.59 365.71 539.09 410.24 539.09 410.24 C 539.09 410.24 499.35 507.07 525.36 598.11 C 525.36 598.11 478.36 525.85 489.23 434.81 C 489.23 434.81 468.64 564.87 487.61 618.34 C 506.58 671.81 535.76 745.08 515.24 775.14 C 515.24 775.14 527.57 728.31 496.46 675.42 C 491.90 670.63 474.69 626.85 430.62 621.79 C 430.62 621.79 427.98 621.52 423.79 621.52 C 410.20 621.52 380.29 624.38 371.45 648.69 C 359.89 680.48 363.45 730.34 363.45 730.34 C 363.45 730.34 263.07 625.75 310.00 478.34 C 310.00 478.34 332.27 579.96 378.00 620.51 C 378.00 620.51 309.00 516.22 319.43 447.81 C 324.43 415.24 360.28 374.69 360.28 374.69 C 360.28 374.69 339.59 496.77 453.12 588.00 C 453.12 588.00 353.99 500.05 370.55 369.32 C 382.01 278.78 517.55 208.86 609.55 197.60 C 617.99 196.57 626.49 196.06 635.00 196.06 M 360.30 374.69 L 360.30 374.69 M 635.05 188.49 L 635.05 188.49 C 626.23 188.49 617.42 189.02 608.67 190.08 C 585.02 192.97 558.67 199.63 532.40 209.34 C 505.56 219.22 479.87 231.96 455.76 247.34 C 430.30 263.76 409.49 281.85 393.92 301.08 C 376.52 322.58 366.17 344.97 363.15 367.64 C 362.25 367.28 361.29 367.10 360.32 367.10 L 360.32 367.10 C 358.64 367.10 357.00 367.66 355.67 368.69 L 355.67 368.69 C 355.36 368.93 355.07 369.19 354.80 369.48 L 354.80 369.48 L 354.64 369.66 C 352.76 371.79 317.23 412.43 312.01 446.66 C 310.84 454.66 310.53 462.76 311.08 470.83 L 310.42 470.77 L 310.00 470.77 C 306.71 470.77 303.79 472.90 302.79 476.04 C 291.87 509.75 287.86 545.31 291.00 580.60 C 293.69 608.88 300.84 636.56 312.18 662.60 C 331.74 707.91 356.96 734.45 358.03 735.60 C 359.46 737.09 361.43 737.93 363.49 737.93 C 364.55 737.93 365.60 737.71 366.56 737.27 C 369.48 735.98 371.27 732.99 371.03 729.81 C 371.03 729.33 367.68 681.17 378.55 651.30 C 385.83 631.30 412.60 629.11 423.77 629.11 C 427.20 629.11 429.48 629.31 429.77 629.34 C 462.52 633.13 479.23 661.62 486.36 673.79 C 487.51 675.89 488.79 677.91 490.21 679.84 C 501.87 699.62 508.62 721.91 509.88 744.84 C 510.71 761.97 507.88 773.14 507.88 773.25 C 506.95 776.81 508.71 780.53 512.07 782.06 C 515.42 783.59 519.39 782.48 521.46 779.43 C 531.06 765.35 532.30 742.97 525.25 711.02 C 519.43 684.68 508.90 655.38 499.60 629.52 C 497.92 624.85 496.28 620.27 494.70 615.83 C 487.03 594.19 486.17 558.83 487.75 525.17 C 490.05 534.64 492.82 543.98 496.05 553.17 C 506.62 583.17 518.48 601.52 518.98 602.28 C 521.03 605.41 525.05 606.57 528.45 605.02 C 531.85 603.48 533.61 599.68 532.60 596.08 C 519.60 550.47 523.92 503.15 529.87 471.48 C 533.37 452.52 538.45 433.88 545.05 415.77 C 561.45 407.89 578.29 400.95 595.48 395.00 C 624.07 385.07 666.90 373.23 708.60 373.23 C 737.12 373.23 761.71 378.72 781.71 389.53 C 811.97 405.88 841.26 444.48 866.43 501.14 C 878.33 528.02 888.21 555.75 896.00 584.09 C 896.86 587.44 899.88 589.78 903.33 589.78 L 903.71 589.78 C 907.30 589.61 910.28 586.93 910.82 583.37 C 911.73 577.00 912.07 570.57 911.82 564.14 C 912.06 566.14 912.27 568.14 912.47 570.14 C 914.90 594.07 915.14 618.17 913.19 642.14 C 912.78 646.04 915.41 649.60 919.25 650.36 C 919.73 650.46 920.23 650.51 920.72 650.51 C 924.08 650.50 927.03 648.29 927.98 645.07 C 944.40 589.07 950.37 535.73 945.71 486.44 C 943.25 459.54 937.31 433.08 928.03 407.72 C 928.69 407.72 929.35 407.62 929.98 407.44 C 933.51 406.46 935.83 403.09 935.48 399.44 C 932.82 371.95 923.18 345.61 907.48 322.89 C 894.81 304.28 878.02 287.09 857.58 271.80 C 825.66 247.92 795.25 236.36 789.58 234.34 C 775.07 225.53 759.85 217.93 744.10 211.60 C 718.30 201.06 678.43 188.49 635.05 188.49 Z" fill="#231815" fill-rule="nonzero" node-id="232" stroke="none" target-height="595.10004" target-width="728.37" target-x="263.07" target-y="188.49"></path><path d="M 588.87 410.70 C 521.68 410.70 452.79 385.24 384.10 335.01 C 383.21 334.36 382.64 333.34 382.56 332.24 C 382.48 331.13 382.88 330.05 383.67 329.27 C 391.67 321.77 400.44 315.13 409.83 309.47 C 408.10 310.42 406.37 311.39 404.64 312.39 C 404.07 312.73 403.41 312.90 402.75 312.90 C 401.37 312.90 400.10 312.16 399.44 310.95 C 398.77 309.75 398.81 308.28 399.54 307.11 C 399.99 306.39 410.84 289.27 432.40 271.96 C 452.32 255.96 485.47 236.96 530.34 236.96 C 540.69 236.99 551.02 237.94 561.20 239.81 C 608.33 248.38 635.70 276.01 651.35 301.90 C 643.38 286.51 632.17 273.04 618.50 262.39 C 596.11 245.05 567.85 236.25 534.50 236.25 C 515.40 236.26 496.41 239.04 478.11 244.51 C 477.72 244.65 477.31 244.71 476.90 244.71 C 475.24 244.70 473.77 243.62 473.29 242.02 C 472.80 240.43 473.41 238.71 474.79 237.78 C 476.86 236.39 526.21 203.71 586.14 203.71 C 589.07 203.71 591.98 203.79 594.85 203.94 C 592.10 203.66 589.32 203.42 586.51 203.23 C 584.50 203.13 582.92 201.47 582.92 199.46 C 582.92 197.44 584.50 195.78 586.51 195.68 C 586.70 195.68 591.38 195.42 599.23 195.42 C 629.30 195.42 691.97 198.91 732.85 225.35 C 729.48 223.11 726.12 221.10 722.85 219.35 C 694.54 203.73 656.72 194.77 619.08 194.77 C 616.89 194.77 614.68 194.77 612.52 194.86 L 612.41 194.86 C 610.46 194.87 608.82 193.40 608.62 191.46 C 608.43 189.51 609.74 187.74 611.66 187.37 C 634.05 183.36 656.76 181.35 679.51 181.37 C 734.66 181.37 806.62 193.79 836.32 252.95 C 845.71 271.64 848.43 292.98 844.02 313.43 C 839.65 333.83 827.98 351.93 811.22 364.34 C 800.74 372.04 790.22 375.95 779.97 375.95 C 778.16 375.95 776.36 375.83 774.57 375.59 C 753.31 372.71 743.88 370.13 738.82 368.75 C 737.24 368.23 735.60 367.89 733.94 367.75 C 732.40 367.75 730.22 368.53 725.45 370.23 L 720.95 371.82 C 715.19 376.20 667.13 410.82 588.80 410.82 Z M 495.05 284.18 C 533.15 284.18 569.98 298.97 604.99 328.23 C 603.99 327.16 602.89 326.09 601.79 325.02 C 572.94 296.84 539.52 282.56 502.46 282.56 C 490.05 282.62 477.69 284.15 465.64 287.12 C 475.32 285.17 485.17 284.18 495.05 284.18 Z M 745.49 234.86 C 752.25 240.81 757.93 247.87 762.31 255.74 C 770.12 269.98 773.79 282.69 774.83 293.79 C 774.83 292.65 774.75 291.48 774.67 290.29 C 773.08 265.89 760.39 247.82 745.49 234.86 Z M 669.00 229.39 C 682.94 239.37 695.32 251.37 705.72 265.00 C 695.54 250.87 682.91 238.67 668.43 229.00 Z" fill="#7dccf3" fill-rule="nonzero" node-id="234" stroke="none" target-height="229.47" target-width="465.94998" target-x="382.48" target-y="181.35"></path><path d="M 679.59 185.09 C 733.25 185.09 804.11 196.99 833.02 254.58 C 851.49 291.38 842.23 336.84 809.02 361.22 C 800.30 367.63 790.48 372.09 780.02 372.09 C 778.38 372.09 776.75 371.98 775.13 371.76 C 742.93 367.41 738.59 363.86 733.99 363.86 C 731.21 363.86 728.33 365.15 719.18 368.33 C 719.18 368.33 670.32 406.92 588.85 406.92 C 534.33 406.92 465.20 389.64 386.31 331.92 C 386.31 331.92 430.68 287.92 495.02 287.92 C 536.47 287.92 586.20 306.17 637.72 366.18 C 637.72 366.18 594.47 278.73 502.43 278.73 C 473.92 278.73 440.74 287.11 402.71 309.08 C 402.71 309.08 445.58 240.67 530.31 240.67 C 540.43 240.69 550.53 241.63 560.49 243.46 C 665.22 262.46 671.57 376.76 671.57 376.76 C 671.57 376.76 677.37 303.15 620.79 259.33 C 593.49 238.19 561.41 232.40 534.49 232.40 C 514.98 232.37 495.57 235.22 476.89 240.85 C 476.89 240.85 526.66 207.42 586.13 207.42 C 638.39 207.42 698.13 233.23 738.22 330.21 C 738.22 330.21 720.11 208.15 586.74 199.39 C 586.74 199.39 591.42 199.13 599.26 199.13 C 633.77 199.13 729.65 204.13 758.96 257.52 C 794.96 323.11 741.39 354.52 741.39 354.52 C 741.39 354.52 781.73 340.67 778.39 289.99 C 774.12 224.61 692.57 190.86 619.10 190.85 C 616.87 190.85 614.64 190.88 612.43 190.95 C 634.57 186.97 657.03 184.99 679.53 185.03 M 679.53 177.46 C 656.53 177.40 633.57 179.43 610.93 183.53 C 607.20 184.30 604.63 187.73 604.93 191.53 C 602.93 191.53 601.05 191.53 599.27 191.53 C 591.27 191.53 586.54 191.79 586.34 191.80 C 582.34 192.02 579.21 195.32 579.18 199.32 C 579.18 199.54 579.18 199.75 579.18 199.97 C 549.95 201.19 523.67 209.81 506.26 217.13 C 485.94 225.68 473.19 234.18 472.65 234.54 C 469.50 236.66 468.41 240.78 470.09 244.18 C 470.20 244.41 470.33 244.63 470.46 244.85 C 455.90 250.94 442.27 259.07 430.00 269.00 C 408.00 286.70 396.77 304.35 396.30 305.09 C 394.62 307.77 394.79 311.21 396.71 313.72 C 391.17 317.62 385.92 321.92 381.00 326.58 C 379.42 328.14 378.61 330.31 378.78 332.52 C 378.94 334.73 380.07 336.76 381.86 338.07 C 451.21 388.78 520.86 414.49 588.86 414.49 C 622.77 414.59 656.35 407.82 687.57 394.58 C 707.12 386.16 719.25 377.71 722.80 375.09 C 724.30 374.57 725.61 374.09 726.80 373.68 C 730.48 372.37 733.14 371.43 734.02 371.43 C 735.34 371.62 736.63 371.93 737.90 372.33 C 743.05 373.74 752.63 376.33 774.14 379.27 C 776.10 379.53 778.07 379.66 780.05 379.66 C 791.14 379.66 802.40 375.51 813.54 367.32 C 831.04 354.36 843.23 335.46 847.80 314.17 C 852.40 292.87 849.58 270.64 839.80 251.17 C 809.24 190.28 735.80 177.50 679.61 177.50 Z" fill="#231815" fill-rule="nonzero" node-id="236" stroke="none" target-height="237.19" target-width="473.79004" target-x="378.61" target-y="177.4"></path><path d="M 428.49 775.00 C 400.31 775.00 372.55 750.74 354.24 710.12 C 336.57 670.93 339.82 625.12 361.95 601.12 C 374.52 587.52 390.95 580.03 408.31 580.03 C 434.16 580.03 464.02 598.16 472.43 638.67 C 479.26 671.58 481.33 708.98 477.57 731.75 C 475.93 741.69 468.03 762.56 449.83 770.40 C 443.11 773.38 435.84 774.94 428.49 775.00 Z" fill="#fce4d6" fill-rule="nonzero" node-id="238" stroke="none" target-height="194.96997" target-width="144.75998" target-x="336.57" target-y="580.03"></path><path d="M 408.31 583.88 C 435.03 583.88 461.17 603.13 468.72 639.50 C 475.50 672.14 477.47 709.19 473.84 731.20 C 472.16 741.38 464.23 760.13 448.34 766.99 C 442.08 769.75 435.33 771.19 428.49 771.23 C 400.29 771.23 374.49 745.78 357.69 708.58 C 340.85 671.23 343.42 626.79 364.69 603.75 C 377.06 590.36 392.76 583.88 408.27 583.88 M 408.27 576.31 C 389.87 576.31 372.42 584.23 359.13 598.61 C 347.70 610.97 340.66 629.33 339.31 650.31 C 338.15 671.39 342.07 692.45 350.75 711.70 C 359.63 731.41 371.02 747.92 383.66 759.45 C 397.55 772.11 413.04 778.80 428.45 778.80 C 436.32 778.76 444.09 777.10 451.29 773.94 C 470.99 765.44 479.51 743.07 481.29 732.43 C 485.11 709.24 483.03 671.28 476.11 637.96 C 472.21 619.14 463.39 603.36 450.63 592.32 C 438.89 582.08 423.87 576.40 408.29 576.32 Z" fill="#231815" fill-rule="nonzero" node-id="240" stroke="none" target-height="202.48999" target-width="146.95999" target-x="338.15" target-y="576.31"></path><path d="M 461.72 608.54 L 460.95 609.05 C 461.72 609.99 461.96 611.26 461.60 612.42 C 461.24 613.59 460.32 614.49 459.15 614.83 C 457.45 615.39 455.60 614.66 454.74 613.09 L 453.86 613.66 L 469.24 720.66 L 475.03 721.37 C 475.15 720.00 476.00 718.81 477.26 718.26 C 478.51 717.71 479.97 717.89 481.06 718.73 C 482.14 719.56 482.68 720.93 482.47 722.28 L 482.83 722.33 C 488.19 636.36 461.72 608.54 461.72 608.54 Z" fill="#fce4d6" fill-rule="nonzero" node-id="242" stroke="none" target-height="113.79004" target-width="34.330017" target-x="453.86" target-y="608.54"></path><path d="M 371.00 631.57 C 371.06 632.77 371.95 633.77 373.14 633.97 C 374.33 634.17 375.50 633.52 375.95 632.40 C 378.42 625.66 383.72 614.88 395.21 616.25 C 414.54 618.56 392.29 650.44 388.21 687.42 C 382.55 738.91 436.87 752.10 450.45 722.36 C 466.66 686.88 423.45 680.00 427.81 665.45 C 440.51 622.60 416.01 604.02 403.21 603.29 C 388.73 602.47 370.53 614.24 371.00 631.57 Z" fill="#e6ae8b" fill-rule="nonzero" node-id="244" stroke="none" target-height="149.63" target-width="96.130005" target-x="370.53" target-y="602.47"></path><path d="M 460.88 609.67 C 467.15 620.66 471.84 632.48 474.80 644.78 C 477.89 658.14 488.43 667.39 491.92 675.20" fill="#fce4d6" fill-rule="nonzero" node-id="246" stroke="#231815" stroke-linecap="round" stroke-width="7.57" target-height="65.53003" target-width="31.040009" target-x="460.88" target-y="609.67"></path><path d="M 360.36 664.42 C 354.96 664.42 350.58 660.04 350.58 654.64 C 350.58 649.24 354.96 644.86 360.36 644.86 C 365.76 644.86 370.14 649.24 370.14 654.64 C 370.13 660.04 365.76 664.41 360.36 664.42 Z" fill="#ca0915" fill-rule="nonzero" node-id="248" stroke="none" target-height="19.559998" target-width="19.560028" target-x="350.58" target-y="644.86"></path><path d="M 360.36 646.75 C 364.72 646.75 368.25 650.28 368.25 654.64 C 368.25 659.00 364.72 662.53 360.36 662.53 C 356.00 662.53 352.47 659.00 352.47 654.64 C 352.47 650.28 356.00 646.75 360.36 646.75 M 360.36 642.97 C 355.64 642.96 351.37 645.79 349.56 650.15 C 347.74 654.51 348.73 659.54 352.07 662.88 C 355.40 666.23 360.42 667.23 364.79 665.42 C 369.15 663.62 372.00 659.36 372.00 654.64 C 371.97 648.22 366.78 643.03 360.36 643.00 Z" fill="#231815" fill-rule="nonzero" node-id="250" stroke="none" target-height="24.269958" target-width="24.26001" target-x="347.74" target-y="642.96"></path><path d="M 365.52 691.85 C 362.39 691.85 359.57 689.96 358.37 687.07 C 357.17 684.18 357.83 680.85 360.05 678.63 C 362.27 676.42 365.60 675.76 368.49 676.96 C 371.38 678.16 373.26 680.99 373.26 684.12 C 373.25 688.39 369.79 691.85 365.52 691.85 Z" fill="#ca0915" fill-rule="nonzero" node-id="252" stroke="none" target-height="16.089966" target-width="16.089996" target-x="357.17" target-y="675.76"></path><path d="M 365.52 678.28 C 368.75 678.28 371.36 680.89 371.36 684.12 C 371.36 687.35 368.75 689.96 365.52 689.96 C 362.29 689.96 359.68 687.35 359.68 684.12 C 359.68 680.89 362.29 678.28 365.52 678.28 M 365.52 674.49 C 360.20 674.49 355.89 678.80 355.89 684.12 C 355.89 689.44 360.20 693.75 365.52 693.75 C 370.84 693.75 375.15 689.44 375.15 684.12 C 375.15 678.80 370.84 674.49 365.52 674.49 Z" fill="#231815" fill-rule="nonzero" node-id="254" stroke="none" target-height="19.26001" target-width="19.25998" target-x="355.89" target-y="674.49"></path><path d="M 375.41 716.11 C 372.13 716.10 369.48 713.44 369.48 710.16 C 369.48 706.88 372.14 704.23 375.42 704.23 C 378.70 704.23 381.36 706.89 381.36 710.17 C 381.33 713.44 378.68 716.08 375.41 716.11 Z" fill="#ca0915" fill-rule="nonzero" node-id="256" stroke="none" target-height="11.880005" target-width="11.879974" target-x="369.48" target-y="704.23"></path><path d="M 375.42 706.12 C 377.62 706.15 379.39 707.95 379.37 710.15 C 379.35 712.36 377.56 714.13 375.35 714.12 C 373.15 714.11 371.37 712.32 371.37 710.12 C 371.37 709.05 371.80 708.03 372.56 707.27 C 373.32 706.52 374.35 706.11 375.42 706.12 M 375.42 702.33 C 372.25 702.33 369.39 704.23 368.17 707.16 C 366.95 710.09 367.62 713.47 369.86 715.71 C 372.10 717.95 375.48 718.63 378.41 717.41 C 381.34 716.20 383.25 713.34 383.25 710.17 C 383.24 705.85 379.74 702.34 375.42 702.33 Z" fill="#231815" fill-rule="nonzero" node-id="258" stroke="none" target-height="16.299988" target-width="16.299988" target-x="366.95" target-y="702.33"></path><path d="M 429.79 792.63 C 429.13 792.64 428.52 792.30 428.18 791.74 L 414.32 769.30 C 413.97 768.72 413.95 768.00 414.27 767.41 L 426.77 744.19 C 427.09 743.60 427.70 743.21 428.37 743.19 L 454.79 742.41 C 455.44 742.41 456.05 742.74 456.40 743.30 L 470.25 765.74 C 470.61 766.31 470.63 767.04 470.31 767.63 L 457.81 790.85 C 457.49 791.44 456.88 791.83 456.20 791.85 Z" fill="#ca0915" fill-rule="nonzero" node-id="260" stroke="none" target-height="50.23004" target-width="56.679993" target-x="413.95" target-y="742.41"></path><path d="M 454.79 744.31 L 468.64 766.74 L 456.14 790.00 L 429.79 790.78 L 415.93 768.35 L 428.43 745.13 L 454.79 744.35 M 454.79 740.56 L 454.68 740.56 L 428.32 741.34 C 426.97 741.38 425.74 742.15 425.10 743.34 L 412.60 766.55 C 411.96 767.74 412.00 769.19 412.71 770.34 L 426.57 792.77 C 427.26 793.89 428.48 794.57 429.79 794.57 L 429.90 794.57 L 456.26 793.79 C 457.61 793.74 458.84 792.98 459.48 791.79 L 472.00 768.54 C 472.64 767.35 472.59 765.90 471.88 764.75 L 458.00 742.32 C 457.31 741.20 456.09 740.52 454.78 740.52 Z" fill="#231815" fill-rule="nonzero" node-id="262" stroke="none" target-height="54.049988" target-width="60.680023" target-x="411.96" target-y="740.52"></path><path d="M 426.95 761.05 L 432.60 750.31 L 442.29 750.31" fill="none" node-id="264" stroke="#ffffff" stroke-linecap="round" stroke-width="3.78" target-height="10.73999" target-width="15.339996" target-x="426.95" target-y="750.31"></path><path d="M 764.35 577.48 L 796.36 577.48 L 796.36 595.05 L 764.35 595.05 Z" fill="#ffffff" fill-rule="nonzero" node-id="266" stroke="none" target-height="17.570007" target-width="32.01001" target-x="764.35" target-y="577.48"></path><path d="M 794.46 579.37 L 794.46 593.16 L 766.24 593.16 L 766.24 579.37 L 794.46 579.37 M 798.25 575.59 L 762.46 575.59 L 762.46 596.94 L 798.25 596.94 L 798.25 575.59 Z" fill="#231815" fill-rule="nonzero" node-id="268" stroke="none" target-height="21.349976" target-width="35.789978" target-x="762.46" target-y="575.59"></path><path d="M 767.41 605.45 L 799.42 605.45 L 799.42 623.02 L 767.41 623.02 Z" fill="#ffffff" fill-rule="nonzero" node-id="270" stroke="none" target-height="17.570007" target-width="32.01001" target-x="767.41" target-y="605.45"></path><path d="M 797.52 607.34 L 797.52 621.13 L 769.30 621.13 L 769.30 607.34 L 797.52 607.34 M 801.31 603.56 L 765.52 603.56 L 765.52 624.92 L 801.31 624.92 L 801.31 603.56 Z" fill="#231815" fill-rule="nonzero" node-id="272" stroke="none" target-height="21.359985" target-width="35.789978" target-x="765.52" target-y="603.56"></path><path d="M 637.66 760.09 C 565.72 760.09 507.18 695.57 507.18 616.25 C 507.18 536.93 565.72 472.41 637.66 472.41 C 709.60 472.41 768.13 536.93 768.13 616.25 C 768.13 695.57 709.60 760.09 637.66 760.09 Z M 637.66 495.09 C 578.24 495.09 529.89 549.43 529.89 616.23 C 529.89 683.03 578.24 737.37 637.66 737.37 C 697.08 737.37 745.43 683.03 745.43 616.23 C 745.43 549.43 697.08 495.11 637.66 495.11 Z" fill="#ffffff" fill-rule="nonzero" node-id="274" stroke="none" target-height="287.68002" target-width="260.95" target-x="507.18" target-y="472.41"></path><path d="M 637.66 474.30 C 708.56 474.30 766.24 537.98 766.24 616.30 C 766.24 694.62 708.56 758.30 637.66 758.30 C 566.76 758.30 509.08 694.62 509.08 616.30 C 509.08 537.98 566.76 474.30 637.66 474.30 M 637.66 739.30 C 698.13 739.30 747.32 684.11 747.32 616.30 C 747.32 548.49 698.13 493.30 637.66 493.30 C 577.19 493.30 528.00 548.41 528.00 616.25 C 528.00 684.09 577.19 739.25 637.66 739.25 M 637.66 470.48 C 564.66 470.48 505.29 535.86 505.29 616.22 C 505.29 696.58 564.67 762.00 637.66 762.00 C 710.65 762.00 770.00 696.61 770.00 616.25 C 770.00 535.89 710.65 470.51 637.66 470.51 Z M 637.66 735.48 C 579.28 735.48 531.78 681.98 531.78 616.23 C 531.78 550.48 579.28 497.00 637.66 497.00 C 696.04 497.00 743.54 550.50 743.54 616.25 C 743.54 682.00 696.00 735.50 637.66 735.50 Z" fill="#231815" fill-rule="nonzero" node-id="276" stroke="none" target-height="291.52" target-width="264.71" target-x="505.29" target-y="470.48"></path><path d="M 748.50 616.25 C 748.50 684.21 698.88 739.31 637.66 739.31 C 576.44 739.31 526.82 684.21 526.82 616.25 C 526.82 548.29 576.44 493.19 637.66 493.19 C 698.88 493.19 748.50 548.29 748.50 616.25 Z" fill="#ca0915" fill-rule="nonzero" node-id="278" stroke="none" target-height="246.12" target-width="221.68" target-x="526.82" target-y="493.19"></path><path d="M 637.66 495.08 C 697.83 495.08 746.60 549.33 746.60 616.25 C 746.60 683.17 697.83 737.42 637.66 737.42 C 577.49 737.42 528.71 683.17 528.71 616.25 C 528.71 549.33 577.49 495.08 637.66 495.08 M 637.66 491.29 C 607.47 491.29 579.11 504.29 557.81 528.04 C 536.51 551.79 524.93 583.00 524.93 616.25 C 524.93 649.50 536.61 680.88 557.81 704.46 C 579.01 728.04 607.47 741.21 637.66 741.21 C 667.85 741.21 696.21 728.16 717.51 704.46 C 738.81 680.76 750.39 649.55 750.39 616.25 C 750.39 582.95 738.71 551.62 717.51 528.00 C 696.31 504.38 667.85 491.25 637.66 491.25 Z" fill="#231815" fill-rule="nonzero" node-id="280" stroke="none" target-height="249.96002" target-width="225.46002" target-x="524.93" target-y="491.25"></path><path d="M 884.76 753.00 C 829.70 753.00 784.90 691.64 784.90 616.22 C 784.90 540.80 829.70 479.44 884.76 479.44 C 939.82 479.44 984.61 540.80 984.61 616.22 C 984.61 691.64 939.82 753.00 884.76 753.00 Z M 884.76 501.21 C 839.76 501.21 803.10 552.80 803.10 616.21 C 803.10 679.62 839.73 731.21 884.76 731.21 C 929.79 731.21 966.41 679.62 966.41 616.21 C 966.41 552.80 929.78 501.24 884.76 501.24 Z" fill="#ffffff" fill-rule="nonzero" node-id="282" stroke="none" target-height="273.56" target-width="199.70996" target-x="784.9" target-y="479.44"></path><path d="M 884.76 481.36 C 938.76 481.36 982.76 541.87 982.76 616.25 C 982.76 690.63 938.76 751.13 884.76 751.13 C 830.76 751.13 786.76 690.62 786.76 616.25 C 786.76 541.88 830.76 481.36 884.76 481.36 M 884.76 733.15 C 930.83 733.15 968.31 680.71 968.31 616.25 C 968.31 551.79 930.83 499.34 884.76 499.34 C 838.69 499.34 801.21 551.79 801.21 616.25 C 801.21 680.71 838.69 733.15 884.76 733.15 M 884.76 477.58 C 828.65 477.58 783.00 539.79 783.00 616.25 C 783.00 692.71 828.64 754.92 884.75 754.92 C 940.86 754.92 986.50 692.71 986.50 616.25 C 986.50 539.79 940.86 477.58 884.76 477.58 Z M 884.76 729.37 C 863.76 729.37 843.85 717.76 828.76 696.67 C 813.42 675.20 804.97 646.67 804.97 616.25 C 804.97 585.83 813.42 557.25 828.76 535.82 C 843.83 514.74 863.76 503.13 884.76 503.13 C 905.76 503.13 925.66 514.74 940.76 535.82 C 956.10 557.29 964.55 585.82 964.55 616.25 C 964.55 646.68 956.10 675.25 940.76 696.67 C 925.69 717.76 905.76 729.37 884.76 729.37 Z" fill="#231815" fill-rule="nonzero" node-id="284" stroke="none" target-height="277.34" target-width="203.5" target-x="783" target-y="477.58"></path><path d="M 969.66 616.25 C 969.66 680.88 931.65 733.28 884.76 733.28 C 837.87 733.28 799.86 680.88 799.86 616.25 C 799.86 551.62 837.87 499.22 884.76 499.22 C 931.65 499.22 969.66 551.62 969.66 616.25 Z" fill="#ca0915" fill-rule="nonzero" node-id="286" stroke="none" target-height="234.06003" target-width="169.79999" target-x="799.86" target-y="499.22"></path><path d="M 884.76 501.11 C 930.60 501.11 967.76 552.66 967.76 616.25 C 967.76 679.84 930.60 731.39 884.76 731.39 C 838.92 731.39 801.76 679.84 801.76 616.25 C 801.76 552.66 838.93 501.11 884.76 501.11 M 884.76 497.33 C 861.34 497.33 839.40 509.86 822.99 532.62 C 806.86 555.01 797.99 584.71 797.99 616.25 C 797.99 647.79 806.88 677.49 822.99 699.88 C 839.40 722.64 861.34 735.17 884.76 735.17 C 908.18 735.17 930.11 722.64 946.52 699.88 C 962.66 677.49 971.52 647.79 971.52 616.25 C 971.52 584.71 962.64 555.01 946.52 532.62 C 930.11 509.86 908.18 497.33 884.76 497.33 Z" fill="#231815" fill-rule="nonzero" node-id="288" stroke="none" target-height="237.84" target-width="173.53003" target-x="797.99" target-y="497.33"></path><g clip-path="url(#c)" group-id="2" id="sillyvg_g_2" node-id="290"><path d="M 595.20 735.43 L 561.67 735.43 L 687.22 501.09 L 720.76 501.09 L 595.20 735.43 Z" fill="#da525e" fill-rule="nonzero" group-id="2" node-id="292" stroke="none" target-height="234.34" target-width="159.09003" target-x="561.67" target-y="501.09"></path><path d="M 644.37 707.84 L 625.98 707.84 L 694.81 579.37 L 713.20 579.37 L 644.37 707.84 Z" fill="#da525e" fill-rule="nonzero" group-id="2" node-id="294" stroke="none" target-height="128.47003" target-width="87.22003" target-x="625.98" target-y="579.37"></path></g><g clip-path="url(#d)" group-id="3" id="sillyvg_g_3" node-id="297"><path d="M 840.75 729.66 L 810.42 729.66 L 923.96 506.85 L 954.28 506.85 L 840.75 729.66 Z" fill="#da525e" fill-rule="nonzero" group-id="3" node-id="299" stroke="none" target-height="222.80997" target-width="143.86005" target-x="810.42" target-y="506.85"></path><path d="M 885.20 703.43 L 868.58 703.43 L 930.82 581.28 L 947.44 581.28 L 885.20 703.43 Z" fill="#da525e" fill-rule="nonzero" group-id="3" node-id="301" stroke="none" target-height="122.14996" target-width="78.859985" target-x="868.58" target-y="581.28"></path></g><path d="M 816.74 747.77 C 815.55 759.91 801.19 775.03 789.05 773.83 C 776.91 772.63 771.58 755.58 772.78 743.44 C 773.98 731.29 784.79 722.41 796.94 723.61 C 809.10 724.80 817.98 735.62 816.78 747.77 Z" fill="#e6ae8b" fill-rule="nonzero" node-id="304" stroke="none" target-height="52.620056" target-width="46.399963" target-x="771.58" target-y="722.41"></path><path d="M 799.36 754.67 C 784.44 754.67 772.30 742.15 772.30 726.77 C 772.30 711.39 784.44 698.86 799.36 698.86 C 814.28 698.86 826.42 711.38 826.42 726.77 C 826.42 742.16 814.28 754.67 799.36 754.67 Z" fill="#fce4d6" fill-rule="nonzero" node-id="306" stroke="none" target-height="55.809998" target-width="54.119995" target-x="772.3" target-y="698.86"></path><path d="M 799.36 700.76 C 813.26 700.76 824.52 712.40 824.52 726.76 C 824.52 741.12 813.26 752.76 799.36 752.76 C 785.46 752.76 774.19 741.12 774.19 726.76 C 774.19 712.40 785.46 700.76 799.36 700.76 M 799.36 696.97 C 783.36 696.97 770.36 710.34 770.36 726.77 C 770.36 743.20 783.36 756.56 799.36 756.56 C 815.36 756.56 828.31 743.19 828.31 726.77 C 828.31 710.35 815.31 696.97 799.36 696.97 Z" fill="#231815" fill-rule="nonzero" node-id="308" stroke="none" target-height="59.590027" target-width="57.950012" target-x="770.36" target-y="696.97"></path></svg>